<svg width="1280" height="307" viewBox="0 0 1280 307" fill="none" xmlns="http://www.w3.org/2000/svg">
<circle cx="1121.01" cy="217.239" r="27.6618" stroke="#D4E1F3" stroke-linecap="round"/>
<path d="M1120.58 204.281V292.049" stroke="#D4E1F3" stroke-linecap="round"/>
<path d="M1120.58 223.588L1130.88 213.286" stroke="#D4E1F3" stroke-linecap="round"/>
<path d="M1120.39 233.491L1113.06 226.163" stroke="#D4E1F3" stroke-linecap="round"/>
<path d="M1120.39 217.429L1113.06 210.102" stroke="#D4E1F3" stroke-linecap="round"/>
<circle cx="1132.29" cy="223.588" r="1.69704" stroke="#D4E1F3" stroke-linecap="round"/>
<circle cx="1104.71" cy="210.101" r="1.69704" stroke="#D4E1F3" stroke-linecap="round"/>
<path d="M1101.26 297.3C1104.15 291.738 1110.46 288.868 1116.55 290.35C1122.63 291.832 1126.92 297.283 1126.93 303.549" stroke="#D4E1F3" stroke-linecap="round"/>
<path d="M1087.8 303.549C1087.7 300.666 1089.18 297.957 1091.66 296.486C1094.14 295.014 1097.23 295.014 1099.71 296.486C1102.19 297.957 1103.67 300.666 1103.57 303.549" stroke="#D4E1F3" stroke-linecap="round"/>
<path d="M1123.68 294.734C1126.64 293.471 1130.04 293.778 1132.73 295.551C1135.42 297.325 1137.04 300.329 1137.04 303.549" stroke="#D4E1F3" stroke-linecap="round"/>
<path d="M1114.09 293.965V302.54L1110 298.448" stroke="#D4E1F3" stroke-linecap="round" stroke-linejoin="round"/>
<path d="M1114.09 299.605L1117.08 296.611" stroke="#D4E1F3" stroke-linecap="round"/>
<path d="M967.574 298.298C970.459 292.736 976.772 289.866 982.86 291.348C988.948 292.83 993.234 298.281 993.24 304.547" stroke="#D4E1F3" stroke-linecap="round"/>
<path d="M1001.01 298.188C1003.89 292.626 1010.2 289.756 1016.29 291.239C1022.38 292.721 1026.67 298.171 1026.67 304.437" stroke="#D4E1F3" stroke-linecap="round"/>
<path d="M954.118 304.547C954.015 301.664 955.495 298.955 957.975 297.484C960.456 296.012 963.542 296.012 966.023 297.484C968.504 298.955 969.983 301.664 969.88 304.547" stroke="#D4E1F3" stroke-linecap="round"/>
<path d="M943.366 304.547C943.368 301.491 945.134 298.712 947.899 297.413C950.664 296.113 953.931 296.528 956.284 298.477" stroke="#D4E1F3" stroke-linecap="round"/>
<path d="M1026.67 304.547C1026.57 301.664 1028.05 298.955 1030.53 297.484C1033.01 296.012 1036.1 296.012 1038.58 297.484C1041.06 298.955 1042.54 301.664 1042.43 304.547" stroke="#D4E1F3" stroke-linecap="round"/>
<path d="M989.995 295.732C992.957 294.469 996.355 294.776 999.043 296.55C1001.73 298.323 1003.35 301.327 1003.35 304.547" stroke="#D4E1F3" stroke-linecap="round"/>
<path d="M970.01 245.48V294.754" stroke="#D4E1F3" stroke-linecap="round"/>
<path d="M980.402 294.963V303.538L976.309 299.446" stroke="#D4E1F3" stroke-linecap="round" stroke-linejoin="round"/>
<path d="M1012.1 294.963V303.538L1008 299.446" stroke="#D4E1F3" stroke-linecap="round" stroke-linejoin="round"/>
<path d="M970.01 264.207L976.509 257.708" stroke="#D4E1F3" stroke-linecap="round"/>
<path d="M969.88 255.153L965.258 250.531" stroke="#D4E1F3" stroke-linecap="round"/>
<path d="M980.402 300.604L983.397 297.609" stroke="#D4E1F3" stroke-linecap="round"/>
<path d="M960.037 256.93V244.581C960.037 239.068 964.507 234.599 970.02 234.599V234.599C975.533 234.599 980.003 239.068 980.003 244.581V263.309C980.003 268.822 975.533 273.291 970.02 273.291V273.291C968.197 273.293 966.409 272.796 964.849 271.854" stroke="#D4E1F3" stroke-linecap="round"/>
<path d="M954.118 262.131V297.209" stroke="#D4E1F3" stroke-linecap="round"/>
<path d="M954.118 277.424L960.616 270.925" stroke="#D4E1F3" stroke-linecap="round"/>
<path d="M953.998 269.129L949.376 264.507" stroke="#D4E1F3" stroke-linecap="round"/>
<rect x="944.145" y="255.882" width="19.9353" height="27.6918" rx="9.96763" stroke="#D4E1F3" stroke-linecap="round"/>
<path d="M980.402 245.49H997.891V264.367" stroke="#D4E1F3" stroke-width="1.68" stroke-linecap="round"/>
<path d="M944.375 226.083H971.118V233.57" stroke="#D4E1F3" stroke-width="1.68" stroke-linecap="round"/>
<path d="M997.892 264.367H1024.64V283.254" stroke="#D4E1F3" stroke-width="1.68" stroke-linecap="round"/>
<path d="M1024.64 283.254H1051.38V304.437" stroke="#D4E1F3" stroke-width="1.68" stroke-linecap="round"/>
<path d="M1051.38 304.437H1078.12" stroke="#D4E1F3" stroke-width="1.68" stroke-linecap="round"/>
<path d="M971.148 226.603V231.674" stroke="#D4E1F3" stroke-width="1.68" stroke-linecap="round"/>
<path d="M1087.95 222.45C1087.95 222.45 1078.91 222.779 1068.15 222.45C1062.48 222.308 1056.95 220.609 1052.18 217.538C1051.45 217.153 1050.81 216.611 1050.31 215.951C1049.76 214.623 1048.5 221.781 1047.12 221.392L1043.46 224.227L1033.48 221.871L1042.64 233.451C1042.64 233.451 1042.19 232.772 1054.21 230.765C1064.72 228.998 1079.34 228.25 1088.44 228.12L1087.95 222.45Z" fill="#EBEBEB"/>
<path d="M1087.95 222.45L1095.22 222.34L1095.26 225.355L1088.27 226.483L1087.95 222.45Z" fill="#D48E64"/>
<ellipse cx="1095.83" cy="225.377" rx="3.05468" ry="3.79339" transform="rotate(-84.72 1095.83 225.377)" fill="#D48E64"/>
<path d="M1049.51 221.601L1042.6 204.221L1039.47 208.504C1039.36 208.651 1039.26 208.804 1039.17 208.963C1038.51 210.229 1038.42 211.719 1038.92 213.055C1039.43 214.391 1040.49 215.446 1041.82 215.951L1042.6 216.26L1043.41 224.247L1049.51 221.601Z" fill="#D48E64"/>
<path d="M1017.99 199.949C1017.99 199.949 1024.24 206.498 1032.15 213.775C1036.32 217.654 1041.48 220.304 1047.07 221.432C1047.86 221.665 1048.69 221.723 1049.51 221.601C1050.83 221.032 1053.83 227.421 1055.1 228.1L1058.4 231.714L1061.46 239.969L1046.72 246.618C1043.85 240.571 1040.37 234.831 1036.34 229.488C1030.04 220.902 1020.08 210.171 1013.64 203.732L1017.99 199.949Z" fill="#EBEBEB"/>
<path d="M1060.94 300.873L1066.48 297.429L1068.96 302.331L1061.92 302.75L1060.94 300.873Z" fill="#D48E64"/>
<path d="M1046.66 268.829L1046.76 245.47C1046.76 244.831 1046.98 244.211 1047.38 243.713C1048.7 242.056 1052.31 238.721 1059.46 239.091C1060.22 239.122 1060.93 239.436 1061.46 239.969L1077.3 255.882L1046.66 268.829Z" fill="#F2BD41"/>
<path d="M1077.57 256.271C1078.57 258.557 1072.5 263.359 1064.06 266.992C1055.61 270.626 1047.74 271.574 1046.76 269.288C1045.77 267.002 1052.04 262.36 1060.49 258.717C1068.95 255.073 1076.58 254.005 1077.57 256.271Z" fill="#F19920"/>
<path d="M1102.36 255.582L1093.72 256.59L1095.78 252.288L1102.64 253.935L1102.36 255.582Z" fill="#D48E64"/>
<path d="M1095.14 252.607L1076.18 262.81L1073.48 258.387C1070.52 259.137 1067.62 260.114 1064.8 261.312L1072.79 270.566C1074.09 272.073 1076.36 272.256 1077.88 270.975L1096.55 254.694C1097 254.263 1097.07 253.574 1096.72 253.06C1096.37 252.546 1095.71 252.355 1095.14 252.607Z" fill="#D48E64"/>
<path d="M1067.92 302.001C1068.03 302.569 1068.58 302.938 1069.15 302.825C1069.72 302.712 1070.09 302.16 1069.98 301.592L1061.46 262.859C1058.4 264.364 1055.48 266.155 1052.76 268.21L1067.92 302.001Z" fill="#D48E64"/>
<path d="M1071.61 255.312L1070.24 255.552C1067.43 256.142 1064.68 256.988 1062.03 258.078L1064.82 261.312C1067.64 260.114 1070.54 259.137 1073.5 258.387L1071.61 255.312Z" fill="#CE835A"/>
<path d="M1050.8 263.988L1052.01 266.643L1052.76 268.21C1055.48 266.156 1058.4 264.364 1061.46 262.86L1060.46 258.717C1057.07 260.148 1053.84 261.914 1050.8 263.988Z" fill="#CE835A"/>
<path d="M1042.6 204.221L1045.78 212.208C1046.77 217.608 1047.36 223.073 1047.56 228.559C1047.56 236.545 1057.65 244.352 1065.31 234.549C1072.98 224.746 1051.34 203.173 1051.34 203.173C1051.34 203.173 1045.7 199.909 1042.56 204.172" fill="#674424"/>
<ellipse cx="1045.65" cy="211.531" rx="1.72699" ry="1.41753" transform="rotate(-33.41 1045.65 211.531)" fill="#D48E64"/>
<path d="M1017.99 199.949L1012.85 194.808L1010.71 196.934L1014.94 202.624L1017.99 199.949Z" fill="#D48E64"/>
<ellipse cx="1010.33" cy="196.591" rx="3.05468" ry="3.79339" transform="rotate(-51.08 1010.33 196.591)" fill="#D48E64"/>
<path d="M1058.58 302.311L1061.17 300.723L1062.74 301.163C1063.33 301.333 1063.93 301.421 1064.55 301.422H1069.98C1070.21 301.896 1070.18 302.457 1069.91 302.906C1069.63 303.355 1069.14 303.628 1068.61 303.628H1059.22C1058.55 303.628 1058 302.67 1058.58 302.311Z" fill="#C2C1C0"/>
<path d="M1105.15 255.333L1102.36 255.582L1101.66 255.133C1101.15 254.803 1100.59 254.544 1100 254.364L1094.81 252.787C1094.71 252.253 1094.9 251.705 1095.31 251.35C1095.73 250.995 1096.3 250.888 1096.81 251.07L1105.38 253.675C1105.78 253.8 1106.03 254.191 1105.97 254.601C1105.91 255.011 1105.57 255.32 1105.15 255.333Z" fill="#C2C1C0"/>
<path d="M988.817 153.18V177.448C988.817 179.564 985.823 175.002 983.756 174.893L969.621 180.313L985.503 153.69L988.817 153.18Z" fill="#98705B"/>
<path d="M975.011 151.394L969.381 160.098L973.704 163.882L977.277 155.337L975.011 151.394Z" fill="#98705B"/>
<path d="M979.913 163.872L981.041 167.965L973.614 170.351L970.619 165.13L973.254 161.426L978.186 153.091C978.644 152.305 979.396 151.733 980.277 151.503C981.157 151.273 982.093 151.402 982.878 151.863L987.869 154.778C987.869 154.778 985.014 162.275 982.089 163.023C981.531 163.142 980.949 163.065 980.442 162.804L979.913 163.872Z" fill="#E6C1A9"/>
<path d="M965.508 184.017C965.508 184.017 965.318 187.471 968.642 187.74C971.039 187.774 973.408 187.218 975.54 186.123L971.747 180.992C971.747 180.992 969.002 179.774 965.518 183.258" fill="#A42422"/>
<path d="M970.659 180.503L973.734 189.697L987 187.95L985.603 181.012L970.659 180.503Z" fill="#E6C1A9"/>
<path d="M997.253 245.47L1003.86 238.732C1004.86 237.733 1005.34 237.104 1004.79 236.126L1003.03 232.952V232.862L997.043 235.527L995.236 244.342C995.107 244.866 995.343 245.411 995.814 245.675C996.285 245.938 996.874 245.854 997.253 245.47Z" fill="#DA513E"/>
<path d="M960.546 221.252L955.875 224.107C955.45 224.348 955.243 224.847 955.373 225.319C955.502 225.79 955.935 226.113 956.424 226.103H966.656C967.038 226.096 967.396 225.916 967.629 225.613C967.862 225.31 967.945 224.917 967.854 224.546L967.115 221.222H960.527L960.546 221.252Z" fill="#DA513E"/>
<path d="M962.862 202.954L965.318 201.756L961.245 193.291L954.257 196.964C952.38 197.915 951.564 200.16 952.391 202.095L955.445 209.273H964.31L962.862 202.954Z" fill="#E6C1A9"/>
<path d="M955.445 209.273L960.536 221.222H967.125L964.31 209.273H955.445Z" fill="#F2F3F4"/>
<path d="M992.87 203.942L982.718 207.825L990.425 222.719L998.281 219.375L992.87 203.942Z" fill="#E6C1A9"/>
<path d="M1003 232.862L998.281 219.375L990.425 222.719L997.043 235.527L1003 232.862Z" fill="#F2F3F4"/>
<mask id="mask0" mask-type="alpha" maskUnits="userSpaceOnUse" x="961" y="185" width="32" height="24">
<path d="M984.714 185.464C981.352 185.335 977.989 185.698 974.732 186.542C973.833 186.78 972.963 187.115 972.136 187.541L961.205 193.281L966.147 203.543L976.698 200.907L981.121 208.424L992.87 203.932L987 187.121C986.649 186.153 985.744 185.497 984.714 185.464Z" fill="#5B7FC0"/>
</mask>
<g mask="url(#mask0)">
<path d="M984.714 185.464C981.352 185.335 977.989 185.698 974.732 186.542C973.833 186.78 972.963 187.115 972.136 187.541L961.205 193.281L966.147 203.543L976.698 200.907L981.121 208.424L992.87 203.932L987 187.121C986.649 186.153 985.744 185.497 984.714 185.464Z" fill="#5B7FC0"/>
<path d="M972.016 193.67L980.691 208.854" stroke="#3868B2"/>
</g>
<path d="M982.718 207.825L983.467 209.273L994.238 207.825L992.87 203.942L982.718 207.825Z" fill="#DEB093"/>
<circle cx="964.21" cy="223.239" r="1.06814" fill="#F2F3F4"/>
<circle cx="1001.27" cy="236.525" r="1.06814" fill="#F2F3F4"/>
<path d="M957.442 223.159L957.971 224.047" stroke="#B22024" stroke-linecap="round"/>
<path d="M959.079 222.21L959.608 223.089" stroke="#B22024" stroke-linecap="round"/>
<path d="M996.045 240.269L997.083 240.309" stroke="#B22024" stroke-linecap="round"/>
<path d="M996.504 238.033L997.532 238.073" stroke="#B22024" stroke-linecap="round"/>
<path d="M986.112 183.558C983.348 184.015 980.542 184.152 977.747 183.967C975.818 183.699 973.857 184.109 972.196 185.125L970.849 181.132L969.76 178.566L985.363 179.734L986.112 183.558Z" fill="#DEB093"/>
<path d="M960.537 221.222L959.928 219.814C959.928 219.814 960.617 219.814 961.515 219.814C962.359 219.829 963.096 220.391 963.332 221.202L960.537 221.222Z" fill="#DA513E"/>
<path d="M997.043 235.527L996.374 234.239L997.782 233.63C998.564 233.317 999.46 233.552 999.988 234.209L997.043 235.527Z" fill="#DA513E"/>
<path d="M980.432 162.804L976.678 160.657L979.444 164.96L980.432 162.804Z" fill="#DEB093"/>
<path d="M988.817 153.181C988.448 157.044 984.075 155.097 980.831 155.097C978.974 155.097 976.299 156.255 975.48 157.653C974.842 158.751 973.214 156.874 973.214 155.517C973.214 152.302 977.846 147.021 982.638 147.021C985.922 147.001 989.167 149.956 988.817 153.181Z" fill="#98705B"/>
<ellipse cx="979.128" cy="154.913" rx="1.47743" ry="1.07812" transform="rotate(-83.67 979.128 154.913)" fill="#E6C1A9"/>
<path d="M943.806 147.74L932.825 142C932.451 142.648 932.557 143.466 933.084 143.997L936.798 147.71L936.908 148.189C937.058 149.033 937.578 149.766 938.325 150.186L941.54 151.943L943.806 147.74Z" fill="#E6C1A9"/>
<path d="M1004.57 187.102L1010.77 193.441L1008.02 196.016L1001.75 190.036L1004.57 187.102Z" fill="#E6C1A9"/>
<ellipse cx="1009.03" cy="195.534" rx="2.78515" ry="3.18445" transform="rotate(-45 1009.03 195.534)" fill="#E6C1A9"/>
<mask id="mask1" mask-type="alpha" maskUnits="userSpaceOnUse" x="940" y="147" width="65" height="44">
<path d="M958.321 154.898L943.806 147.74L940.901 153.021C940.901 153.021 950.684 158.531 954.996 161.486C958.989 164.231 962.074 169.322 963.881 173.575C965.688 177.828 965.478 184.017 965.478 184.017C968.473 181.022 971.198 180.253 975.93 181.791C979.171 182.716 982.552 183.054 985.912 182.789L984.824 177.039L1001.18 190.575L1004.52 187.091L985.912 167.076C985.057 166.157 984.002 165.446 982.828 165L979.903 163.872C979.853 164.042 979.544 164.661 979.484 164.87C978.555 167.386 976.299 168.604 974.492 167.865C972.686 167.126 971.907 164.551 972.845 162.165C972.845 162.165 973.155 161.616 973.245 161.456L958.321 154.898Z" fill="#DA513E"/>
</mask>
<g mask="url(#mask1)">
<path d="M958.321 154.898L943.806 147.74L940.901 153.021C940.901 153.021 950.684 158.531 954.996 161.486C958.989 164.231 962.074 169.322 963.881 173.575C965.688 177.828 965.478 184.017 965.478 184.017C968.473 181.022 971.198 180.253 975.93 181.791C979.171 182.716 982.552 183.054 985.912 182.789L984.824 177.039L1001.18 190.575L1004.52 187.091L985.912 167.076C985.057 166.157 984.002 165.446 982.828 165L979.903 163.872C979.853 164.042 979.544 164.661 979.484 164.87C978.555 167.386 976.299 168.604 974.492 167.865C972.686 167.126 971.907 164.551 972.845 162.165C972.845 162.165 973.155 161.616 973.245 161.456L958.321 154.898Z" fill="#DA513E"/>
<path d="M989.316 181.421L982.678 175.681" stroke="#B8332A" stroke-linecap="round"/>
<path d="M964.909 179.974C964.909 179.974 963.102 167.805 967.275 161.267" stroke="#B8332A" stroke-linecap="round"/>
</g>
<path d="M1241.7 180.523C1241.7 182.728 1243.48 184.516 1245.69 184.516C1247.9 184.516 1249.68 182.728 1249.68 180.523" stroke="#D4E1F3" stroke-linecap="round"/>
<path d="M1270.33 250.311V266.184" stroke="#D4E1F3" stroke-linecap="round"/>
<path d="M1245.71 171.968V164.511C1245.71 157.713 1251.22 152.202 1258.02 152.202C1264.82 152.202 1270.33 157.713 1270.33 164.511V219.325" stroke="#D4E1F3" stroke-linecap="round"/>
<path d="M1261.6 303.598L1263.18 273.431C1263.39 269.37 1266.74 266.184 1270.81 266.184V266.184C1274.87 266.184 1278.22 269.372 1278.42 273.431L1280 303.598" stroke="#D4E1F3" stroke-linecap="round"/>
<path fill-rule="evenodd" clip-rule="evenodd" d="M1255.11 180.523H1236.31V180.523C1236.31 175.798 1240.14 171.968 1244.86 171.968H1246.55C1248.82 171.968 1250.99 172.869 1252.6 174.474C1254.2 176.078 1255.1 178.254 1255.1 180.523V180.523H1255.11Z" stroke="#D4E1F3" stroke-linecap="round"/>
<circle cx="1256.8" cy="234.818" r="20.5742" stroke="#D4E1F3" stroke-linecap="round"/>
<path d="M1236.63 230.047C1228.49 234.475 1218.39 232.916 1211.97 226.237C1205.54 219.559 1204.37 209.41 1209.12 201.448C1213.86 193.486 1223.34 189.676 1232.27 192.142C1241.2 194.608 1247.38 202.741 1247.37 212.008C1247.37 213.447 1247.22 214.883 1246.92 216.291" stroke="#D4E1F3" stroke-linecap="round"/>
<path d="M1256.48 225.924V303.778" stroke="#D4E1F3" stroke-linecap="round"/>
<path d="M1256.48 239.54L1264.14 231.883" stroke="#D4E1F3" stroke-linecap="round"/>
<path d="M1256.34 246.897L1250.89 241.457" stroke="#D4E1F3" stroke-linecap="round"/>
<path d="M1256.34 234.958L1250.89 229.517" stroke="#D4E1F3" stroke-linecap="round"/>
<path d="M1226.47 209.383V302.211" stroke="#D4E1F3" stroke-linecap="round"/>
<path d="M1226.47 216.59L1234.13 208.933" stroke="#D4E1F3" stroke-linecap="round"/>
<path d="M1226.33 212.008L1220.88 206.557" stroke="#D4E1F3" stroke-linecap="round"/>
<circle cx="1234.13" cy="200.508" r="1.69704" stroke="#D4E1F3" stroke-linecap="round"/>
<circle cx="1245.81" cy="235.128" r="1.69704" stroke="#D4E1F3" stroke-linecap="round"/>
<path opacity="0.5" d="M1174.61 303.898H1203.18" stroke="#D4E1F3" stroke-linecap="round"/>
<path opacity="0.5" d="M1209.47 303.898H1244.11" stroke="#D4E1F3" stroke-linecap="round"/>
<path opacity="0.5" d="M1143.28 303.898H1164.38" stroke="#D4E1F3" stroke-linecap="round"/>
<path d="M1149.37 244.132C1136.48 254.724 1139.46 278.752 1139.46 278.752H1166.15V258.627C1166.15 254.175 1166.6 249.143 1167.47 247.147L1154.79 238.901C1153.12 240.78 1151.3 242.529 1149.37 244.132Z" fill="#A9D8B5"/>
<mask id="mask2" mask-type="alpha" maskUnits="userSpaceOnUse" x="1147" y="278" width="19" height="27">
<path d="M1163.98 278.752L1159.76 296.93C1159.55 297.834 1159.96 298.769 1160.76 299.236L1165.28 301.921C1165.83 302.242 1166.1 302.894 1165.93 303.511C1165.76 304.127 1165.2 304.553 1164.56 304.547H1151.58L1147.13 278.802L1163.98 278.752Z" fill="#ECA880"/>
</mask>
<g mask="url(#mask2)">
<path d="M1163.98 278.752L1159.76 296.93C1159.55 297.834 1159.96 298.769 1160.76 299.236L1165.28 301.921C1165.83 302.242 1166.1 302.894 1165.93 303.511C1165.76 304.127 1165.2 304.553 1164.56 304.547H1151.58L1147.13 278.802L1163.98 278.752Z" fill="#ECA880"/>
<path d="M1156.95 275.967L1155.96 299.006L1161.6 302.44C1162.48 302.972 1162.89 304.024 1162.62 305.013C1162.34 306.003 1161.44 306.686 1160.41 306.683H1149.35" stroke="#D98758"/>
</g>
<path opacity="0.5" d="M1147.81 282.934H1163L1163.98 278.752H1147.08L1147.81 282.934Z" fill="#D98758"/>
<path d="M1166.51 215.981C1166.51 215.981 1164.15 207.466 1172.57 205.33C1180.98 203.193 1183.3 212.317 1184.17 216.989C1185.04 221.661 1197.66 234.139 1186.86 239.64C1176.06 245.14 1172.51 237.054 1170.75 233.451C1168.99 229.847 1166.51 215.981 1166.51 215.981Z" fill="#CB6229"/>
<path d="M1184.72 224.856L1213.13 233.091C1212.54 234.155 1211.32 234.707 1210.13 234.449L1207.79 233.94L1204.91 234.649C1204.31 234.798 1203.68 234.819 1203.06 234.709L1182.87 231.125L1184.72 224.856Z" fill="#ECA880"/>
<path d="M1165.38 220.234L1166.68 217.059C1167.23 216.392 1167.86 215.789 1168.54 215.262C1170.87 213.416 1170.88 214.913 1171.87 213.505C1172.47 212.647 1174.22 212.387 1175.19 211.988L1179.44 210.221C1178.99 212.58 1178.13 214.842 1176.89 216.9C1175.99 218.202 1174.34 218.755 1172.84 218.257L1172.05 217.958L1170.74 220.733L1175.27 222.25L1172.5 229.637L1164.8 226.054L1164.62 221.721L1165.38 220.254" fill="#ECA880"/>
<ellipse cx="1171.67" cy="213.807" rx="1.6072" ry="1.16797" transform="rotate(-82.79 1171.67 213.807)" fill="#ECA880"/>
<path d="M1173.83 221.761L1185.72 224.816L1184.17 232.432L1174.72 229.867L1173.79 223.767" fill="#81C995"/>
<mask id="mask3" mask-type="alpha" maskUnits="userSpaceOnUse" x="1152" y="220" width="26" height="28">
<path d="M1176.19 227.281C1175.74 225.315 1174.94 223.445 1173.82 221.761C1173.5 223.351 1172.31 224.623 1170.74 225.046C1169.18 225.468 1167.51 224.97 1166.43 223.757C1165.55 222.805 1165.16 221.5 1165.38 220.224C1163.02 220.522 1160.89 221.765 1159.47 223.668C1156.24 228.06 1155.4 234.479 1152.48 241.816L1167.46 247.137C1167.48 245.559 1168.12 244.052 1169.23 242.934L1171.29 245.24L1177.35 239.6L1174.09 236.186C1176.01 233.643 1176.77 230.412 1176.19 227.281Z" fill="#A9D8B5"/>
</mask>
<g mask="url(#mask3)">
<path d="M1176.19 227.281C1175.74 225.315 1174.94 223.445 1173.82 221.761C1173.5 223.351 1172.31 224.623 1170.74 225.046C1169.18 225.468 1167.51 224.97 1166.43 223.757C1165.55 222.805 1165.16 221.5 1165.38 220.224C1163.02 220.522 1160.89 221.765 1159.47 223.668C1156.24 228.06 1155.4 234.479 1152.48 241.816L1167.46 247.137C1167.48 245.559 1168.12 244.052 1169.23 242.934L1171.29 245.24L1177.35 239.6L1174.09 236.186C1176.01 233.643 1176.77 230.412 1176.19 227.281Z" fill="#A9D8B5"/>
<path d="M1174.44 235.896L1170.34 231.195" stroke="#5BB874"/>
<path d="M1168.86 243.623L1162.75 236.775C1162.75 236.775 1159.68 233.301 1159.82 230.865" stroke="#5BB874"/>
</g>
<path opacity="0.5" d="M1172.05 217.958L1168.76 216.74L1171.02 220.144L1172.05 217.958Z" fill="#D98758"/>
<path d="M1211.53 301.123H1229.43" stroke="#7198CF"/>
<path d="M1210.26 299.436C1210.26 300.07 1210.78 300.584 1211.41 300.584H1222.14C1222.58 300.58 1222.96 300.292 1223.09 299.873C1223.22 299.453 1223.05 299.001 1222.69 298.757L1215.91 295.353H1209.26L1210.26 299.436Z" fill="#C2C1C0"/>
<path d="M1216.54 299.436C1216.54 299.74 1216.66 300.032 1216.88 300.247C1217.09 300.463 1217.38 300.584 1217.69 300.584H1228.4C1228.84 300.576 1229.22 300.286 1229.34 299.868C1229.46 299.45 1229.3 299 1228.94 298.757L1222.17 295.353H1215.51L1216.54 299.436Z" fill="#C2C1C0"/>
<path d="M1215.13 295.353L1216.13 299.276C1216.17 299.544 1216.31 299.786 1216.52 299.948C1216.74 300.11 1217.01 300.177 1217.28 300.134" stroke="#A5A4A4" stroke-width="0.91"/>
<path d="M1225.29 297.789L1226.05 296.87" stroke="#787878" stroke-width="0.91" stroke-linecap="round"/>
<path d="M1193.16 263.868H1207.04C1208.79 263.869 1210.49 264.398 1211.94 265.385C1213.64 266.555 1214.86 268.288 1215.4 270.277L1222.47 295.493H1209.32L1203.33 277.694H1191.96C1186.94 277.694 1182.86 273.618 1182.86 268.589V264.806H1193.16" fill="#7198CF"/>
<path d="M1215.09 295.353L1207.68 272.413H1205.07" stroke="#547DBF"/>
<path d="M1223.58 296.93L1224.47 295.872" stroke="#787878" stroke-width="0.91" stroke-linecap="round"/>
<circle cx="1209.26" cy="299.755" r="4.06292" fill="#91B2DE"/>
<circle cx="1209.26" cy="299.755" r="1.58723" fill="#7198CF"/>
<rect x="1220.21" y="229.685" width="1.92664" height="8.70483" transform="rotate(22.39 1220.21 229.685)" fill="#6B6B6B"/>
<path d="M1212.73 242.465L1214.86 239.271L1218.6 241.337L1216.74 244.841L1212.73 242.465Z" fill="#A25A4B"/>
<circle cx="1217.95" cy="240.309" r="3.26431" fill="#A25A4B"/>
<path d="M1203.14 228.05C1201.96 232.043 1200.22 235.447 1196.36 234.808C1192.49 234.169 1189.49 231.484 1190.18 227.331C1190.71 223.297 1194.4 220.449 1198.43 220.962C1203.37 221.801 1203.99 225.195 1203.14 228.05Z" fill="#372422"/>
<path d="M1199.11 239.261L1199.67 235.896H1199.78C1200.31 235.958 1200.84 235.886 1201.34 235.687C1202.73 235.102 1203.64 233.752 1203.67 232.243C1203.87 230.367 1203.79 228.473 1203.42 226.623L1203.02 226.563C1201 226.229 1199.06 227.547 1198.63 229.557L1198.33 231.005L1194.41 230.526L1193.41 233.68L1192.58 237.593L1192.05 241.816L1199.28 243.024L1199.11 239.261Z" fill="#A25A4B"/>
<ellipse cx="1195.89" cy="231.122" rx="1.93663" ry="1.64713" transform="rotate(-80.56 1195.89 231.122)" fill="#A25A4B"/>
<circle cx="1188.98" cy="283.883" r="19.9253" fill="white" stroke="#D4E1F3" stroke-width="2" stroke-linecap="round"/>
<circle cx="1188.98" cy="283.883" r="2.82508" fill="#91B2DE"/>
<path d="M1193.27 262.859L1198.44 265.684C1199.12 266.042 1199.64 266.636 1199.9 267.352C1200.28 268.431 1200.41 269.579 1200.29 270.716C1200.22 271.363 1199.85 271.94 1199.29 272.273L1198.95 272.483C1198.35 272.837 1197.62 272.875 1196.98 272.584C1196.35 272.293 1195.9 271.711 1195.78 271.025L1195.5 269.368L1190.41 267.212L1193.27 262.859Z" fill="#A25A4B"/>
<path opacity="0.25" d="M1190.95 245.779L1182.69 257.049L1195.31 264.397" stroke="#547DBF"/>
<mask id="mask4" mask-type="alpha" maskUnits="userSpaceOnUse" x="1173" y="235" width="46" height="36">
<path d="M1218.17 245.26L1208.11 260.314C1207.65 260.976 1206.95 261.418 1206.15 261.534C1205.36 261.65 1204.55 261.428 1203.93 260.923L1202.24 259.535V263.868H1195.63L1191.73 270.227L1175.61 261.492C1174.52 260.897 1173.75 259.852 1173.5 258.636C1173.25 257.42 1173.55 256.157 1174.32 255.183L1187.47 238.642C1189.76 236.066 1191.69 235.767 1192.38 235.747C1192.48 235.733 1192.58 235.733 1192.67 235.747L1192.92 235.817L1198.02 237.384C1198.64 237.573 1199.22 237.848 1199.76 238.202C1199.81 238.23 1199.86 238.263 1199.9 238.302C1200.8 238.928 1201.53 239.782 1202 240.778C1204.07 245.22 1205.29 252.238 1205.29 252.238L1212.52 241.547L1218.17 245.26Z" fill="#D4E1F3"/>
</mask>
<g mask="url(#mask4)">
<path d="M1218.17 245.26L1208.11 260.314C1207.65 260.976 1206.95 261.418 1206.15 261.534C1205.36 261.65 1204.55 261.428 1203.93 260.923L1202.24 259.535V263.868H1195.63L1191.73 270.227L1175.61 261.492C1174.52 260.897 1173.75 259.852 1173.5 258.636C1173.25 257.42 1173.55 256.157 1174.32 255.183L1187.47 238.642C1189.76 236.066 1191.69 235.767 1192.38 235.747C1192.48 235.733 1192.58 235.733 1192.67 235.747L1192.92 235.817L1198.02 237.384C1198.64 237.573 1199.22 237.848 1199.76 238.202C1199.81 238.23 1199.86 238.263 1199.9 238.302C1200.8 238.928 1201.53 239.782 1202 240.778C1204.07 245.22 1205.29 252.238 1205.29 252.238L1212.52 241.547L1218.17 245.26Z" fill="#D4E1F3"/>
<path opacity="0.25" d="M1202.74 260.533V251.01" stroke="#547DBF"/>
</g>
<path d="M1199.73 238.222C1199.01 239.929 1197.86 240.977 1196.01 240.468C1194.15 239.959 1192.01 237.753 1192.5 235.747C1192.59 235.736 1192.68 235.736 1192.77 235.747L1193.01 235.816L1197.92 237.324C1198.51 237.503 1199.08 237.768 1199.59 238.112C1199.64 238.143 1199.69 238.18 1199.73 238.222Z" fill="#A25A4B"/>
<path d="M1185.38 236.206L1177.12 242.195L1176 240.888L1171.35 245.21L1171.98 245.909L1173.89 247.985C1174.4 248.571 1175.12 248.929 1175.89 248.977C1176.66 249.026 1177.41 248.762 1177.99 248.245L1187.65 238.921L1185.38 236.206Z" fill="#ECA880"/>
<path d="M1187.65 238.911L1191.64 236.416C1191.64 236.416 1191.12 233.421 1188.65 233.481C1187.67 233.554 1186.79 234.083 1186.26 234.908L1185.38 236.206L1187.65 238.911Z" fill="#ECA880"/>
<path d="M868.896 298.298C866.016 292.724 859.697 289.845 853.602 291.329C847.507 292.812 843.218 298.273 843.221 304.547" stroke="#D4E1F3" stroke-linecap="round"/>
<path d="M835.464 298.188C832.579 292.626 826.267 289.756 820.179 291.238C814.091 292.721 809.805 298.171 809.799 304.437" stroke="#D4E1F3" stroke-linecap="round"/>
<path d="M809.799 304.547C809.799 300.191 806.268 296.66 801.913 296.66C797.557 296.66 794.027 300.191 794.027 304.547" stroke="#D4E1F3" stroke-linecap="round"/>
<path d="M846.465 295.732C843.501 294.46 840.097 294.762 837.403 296.537C834.71 298.312 833.089 301.321 833.089 304.547" stroke="#D4E1F3" stroke-linecap="round"/>
<path d="M824.364 294.963V303.538L828.457 299.446" stroke="#D4E1F3" stroke-linecap="round" stroke-linejoin="round"/>
<path d="M933.244 269.108L951.762 298.747L946.661 301.602L933.244 282.904V269.108Z" fill="#208E45"/>
<path d="M952.8 304.916C952.8 304.237 951.802 301.153 952.411 301.153H956.573C958.652 301.153 960.337 302.838 960.337 304.916" fill="#ECA880"/>
<path d="M912.58 283.184L896.189 274.749C892.922 273.069 888.924 273.935 886.645 276.815L870.883 296.78L877.751 301.861L893.264 287.317L903.476 294.644L915.176 289.543L912.58 283.184Z" fill="#F7AB1B"/>
<path d="M930.199 267.331L931.727 261.482L932.845 254.933L926.436 252.497L921.974 252.917C921.974 252.917 918.939 255.702 920.586 261.991C922.233 268.28 924.21 271.115 924.21 271.115L930.199 267.331Z" fill="#ECA880"/>
<path opacity="0.5" d="M924.04 304.896H940.062" stroke="#D4E1F3" stroke-linecap="round"/>
<path d="M951.762 298.747L955.525 304.896H950.274L947.669 301.033L951.762 298.747Z" fill="#ECA880"/>
<path opacity="0.5" d="M850.119 304.896H886.855" stroke="#D4E1F3" stroke-linecap="round"/>
<path d="M920.846 304.916H893.533C891.078 304.916 889.087 302.929 889.081 300.474C889.082 298.496 890.387 296.756 892.285 296.201L915.176 289.523L924.789 300.674C925.452 301.441 925.601 302.526 925.169 303.444C924.738 304.361 923.806 304.938 922.792 304.916H920.846Z" fill="#F2BD41"/>
<mask id="mask5" mask-type="alpha" maskUnits="userSpaceOnUse" x="909" y="266" width="28" height="39">
<path d="M936.718 278.872C936.399 271.484 932.026 266.383 928.552 266.383C926.619 266.315 924.719 266.902 923.162 268.05L922.623 269.488H916.054C916.054 269.488 912.72 278.263 910.763 282.865C908.807 287.467 908.767 292.198 912.021 292.198C913.158 292.143 914.266 291.821 915.255 291.26C915.823 296.557 918.385 301.44 922.423 304.916C937.137 304.916 937.047 286.249 936.718 278.872Z" fill="#55A55C"/>
</mask>
<g mask="url(#mask5)">
<path d="M936.718 278.872C936.399 271.484 932.026 266.383 928.552 266.383C926.619 266.315 924.719 266.902 923.162 268.05L922.623 269.488H916.054C916.054 269.488 912.72 278.263 910.763 282.865C908.807 287.467 908.767 292.198 912.021 292.198C913.158 292.143 914.266 291.821 915.255 291.26C915.823 296.557 918.385 301.44 922.423 304.916C937.137 304.916 937.047 286.249 936.718 278.872Z" fill="#55A55C"/>
<path d="M913.588 292.937C913.588 292.937 916.403 291.619 930.409 279.291L913.588 292.937Z" fill="#34A851"/>
<path d="M913.588 292.937C913.588 292.937 916.403 291.619 930.409 279.291" stroke="#1A8140"/>
<path d="M923.212 266.104L918.709 280.818L923.212 266.104Z" fill="#34A851"/>
<path d="M923.212 266.104L918.709 280.818" stroke="#1A8140"/>
</g>
<path d="M929.101 247.955C926.109 247.606 923.172 248.954 921.485 251.449C921.182 251.9 921.095 252.461 921.247 252.982C921.399 253.503 921.775 253.929 922.273 254.145L923.571 254.704C925.077 255.342 926.209 256.632 926.646 258.208L926.925 259.206L927.284 259.266C927.302 258.721 927.487 258.195 927.814 257.758C928.394 256.782 929.647 256.445 930.639 257C931.053 257.364 931.262 257.909 931.198 258.457C931.198 259.356 930.439 260.054 930.459 260.943C930.499 261.503 930.61 262.057 930.788 262.59C930.788 262.66 931.058 263.588 931.038 263.588C934.53 262.273 936.667 258.737 936.207 255.034C935.747 251.331 932.809 248.425 929.101 248.005V247.955Z" fill="#CB6229"/>
<mask id="mask6" mask-type="alpha" maskUnits="userSpaceOnUse" x="917" y="259" width="11" height="11">
<path d="M920.157 259.655L920.486 261.571C920.702 262.403 921.514 262.935 922.363 262.799L926.416 262.22C926.952 262.181 927.438 262.536 927.564 263.059C927.675 263.54 927.456 264.036 927.025 264.277L923.77 266.054L922.622 269.488H917.122L917.831 264.247C918.043 262.652 918.74 261.16 919.827 259.974L920.157 259.655Z" fill="#ECA880"/>
</mask>
<g mask="url(#mask6)">
<path d="M920.157 259.655L920.486 261.571C920.702 262.403 921.514 262.935 922.363 262.799L926.416 262.22C926.952 262.181 927.438 262.536 927.564 263.059C927.675 263.54 927.456 264.036 927.025 264.277L923.77 266.054L922.622 269.488H917.122L917.831 264.247C918.043 262.652 918.74 261.16 919.827 259.974L920.157 259.655Z" fill="#ECA880"/>
<path d="M919.498 258.577L920.017 261.571C920.18 262.544 921.028 263.252 922.014 263.239L925.857 262.839C926.396 262.839 926.935 262.719 927.065 263.249V263.249C927.185 263.728 926.646 263.997 926.206 264.247L923.391 265.764L921.654 270.925" stroke="#D98758"/>
</g>
<path d="M859.752 302.241C859.044 302.362 858.548 303.008 858.613 303.724C858.679 304.439 859.283 304.985 860.002 304.976L869.895 305.026C870.845 305.043 871.763 304.684 872.45 304.028L876.004 300.564L870.883 296.77L867.299 300.853L859.752 302.241Z" fill="#C2C1C0"/>
<path d="M172.949 178.885C172.949 181.091 174.736 182.879 176.942 182.879C179.147 182.879 180.935 181.091 180.935 178.885" stroke="#D4E1F3" stroke-linecap="round"/>
<path d="M176.962 170.33V162.863C176.962 156.066 182.472 150.555 189.27 150.555C196.068 150.555 201.579 156.066 201.579 162.863V266.882" stroke="#D4E1F3" stroke-linecap="round"/>
<path d="M192.854 304.287L194.431 274.13C194.633 270.07 197.984 266.883 202.048 266.882V266.882C206.114 266.882 209.467 270.069 209.675 274.13L211.252 304.287" stroke="#D4E1F3" stroke-linecap="round"/>
<path fill-rule="evenodd" clip-rule="evenodd" d="M186.365 178.885H167.558V178.885C167.558 176.617 168.459 174.441 170.064 172.836C171.668 171.232 173.844 170.33 176.113 170.33H177.8C182.525 170.33 186.355 174.161 186.355 178.885V178.885H186.365Z" stroke="#D4E1F3" stroke-linecap="round"/>
<path d="M303.362 190.994H327.529" stroke="#D4E1F3" stroke-width="2" stroke-linecap="round"/>
<path d="M313.174 191.903C312.605 192.851 313.055 193.989 313.364 195.058C315.361 201.955 326.341 222.59 326.341 222.59C327.011 222.271 327.656 221.9 328.268 221.481C329.726 220.483 331.343 218.936 330.804 217.858L316.988 194.858C316.687 193.923 316.687 192.918 316.988 191.983L317.587 190.066C317.682 189.708 317.617 189.325 317.408 189.019C317.199 188.712 316.867 188.512 316.499 188.469H315.391C314.831 188.512 314.333 188.84 314.073 189.337L313.174 191.903Z" fill="#ECA880"/>
<path d="M280.142 220.433L280.671 219.964C281.219 219.471 281.93 219.197 282.668 219.195H286.182C286.671 219.197 287.122 219.459 287.365 219.883C287.608 220.307 287.606 220.829 287.359 221.252L286.042 223.528C285.799 223.949 285.35 224.207 284.864 224.207H282.079L280.591 223.787L280.122 220.433" fill="#873F32"/>
<path d="M254.696 225.275L280.142 220.433L280.611 223.787L257.471 231.514L254.696 225.275Z" fill="#873F32"/>
<path d="M256.323 227.301L255.954 222.06L258.949 219.445C260.261 218.299 260.791 216.496 260.307 214.823C259.8 213.008 258.66 211.435 257.092 210.391L250.983 218.626L250.653 227.241L256.323 227.301Z" fill="#A25A4B"/>
<path d="M234.432 248.015C230.568 247.017 228.282 248.015 227.084 249.612C225.178 252.148 229.081 255.602 229.081 255.602" fill="#18733B"/>
<path d="M329.316 146.991L232.375 304.167" stroke="#D4E1F3" stroke-width="2" stroke-linecap="round"/>
<path d="M289.256 212.437H315.71" stroke="#D4E1F3" stroke-width="2" stroke-linecap="round"/>
<path d="M277.057 231.544H303.012" stroke="#D4E1F3" stroke-width="2" stroke-linecap="round"/>
<path d="M266.077 250.511H292.031" stroke="#D4E1F3" stroke-width="2" stroke-linecap="round"/>
<path d="M253.369 270.496H279.813" stroke="#D4E1F3" stroke-width="2" stroke-linecap="round"/>
<path d="M242.068 289.583H267.364" stroke="#D4E1F3" stroke-width="2" stroke-linecap="round"/>
<path opacity="0.5" d="M207.828 304.587H224.449" stroke="#D4E1F3" stroke-linecap="round"/>
<path opacity="0.5" d="M232.395 304.587H249.036" stroke="#D4E1F3" stroke-linecap="round"/>
<path opacity="0.5" d="M258.59 304.587H292.291" stroke="#D4E1F3" stroke-linecap="round"/>
<path d="M261.475 283.224L261.435 273.441H254.976L256.643 286.518L261.954 287.047L265.847 286.059L261.475 283.224Z" fill="#A25A4B"/>
<path d="M234.691 259.485L221.295 286.827L224.289 286.169L240.761 262.829C238.46 262.317 236.354 261.156 234.691 259.485Z" fill="#208E45"/>
<path d="M217.661 303.758L215.065 302.161L213.498 302.61C212.911 302.781 212.303 302.868 211.691 302.87H206.261C206.026 303.343 206.052 303.904 206.331 304.353C206.609 304.802 207.1 305.076 207.628 305.076H217.012C217.691 305.076 218.24 304.117 217.661 303.758Z" fill="#C2C1C0"/>
<path d="M268.073 287.397L265.478 285.799L263.91 286.249C263.323 286.419 262.715 286.506 262.103 286.508H256.673C256.438 286.981 256.465 287.543 256.743 287.992C257.021 288.441 257.512 288.714 258.041 288.714H267.424C267.736 288.714 268.021 288.537 268.159 288.257C268.296 287.977 268.263 287.644 268.073 287.397Z" fill="#C2C1C0"/>
<path d="M219.508 290.94H212.26L206.62 302.171L206.261 302.88H211.691C212.303 302.878 212.911 302.791 213.498 302.62L215.065 302.171L212.52 300.594L219.508 290.94Z" fill="#A25A4B"/>
<path d="M261.644 264.626C261.739 261.941 260.431 259.4 258.19 257.918C254.656 255.572 249.086 251.928 244.145 248.814C240.152 246.308 237.017 246.747 234.891 247.815C233.151 248.715 231.749 250.154 230.898 251.918L211.332 290.94H220.885L240.711 262.839C244.702 264.518 248.934 265.552 253.249 265.904L254.057 273.451H262.044L261.644 264.626Z" fill="#55A55C"/>
<mask id="mask7" mask-type="alpha" maskUnits="userSpaceOnUse" x="211" y="246" width="52" height="45">
<path d="M261.644 264.626C261.739 261.941 260.431 259.4 258.19 257.918C254.656 255.572 249.086 251.928 244.145 248.814C240.152 246.308 237.017 246.747 234.891 247.815C233.151 248.715 231.749 250.154 230.898 251.918L211.332 290.94H220.885L240.711 262.839C244.702 264.518 248.934 265.552 253.249 265.904L254.057 273.451H262.044L261.644 264.626Z" fill="#55A55C"/>
</mask>
<g mask="url(#mask7)">
<path d="M242.528 264.067C242.528 264.067 233.084 261.282 232.874 255.412" stroke="#18733B"/>
</g>
<path d="M211.332 290.93L212.809 287.986H224.729L222.652 290.93H211.332Z" fill="#55A55C"/>
<path d="M222.962 287.986L224.239 286.169L216.163 287.986H222.962Z" fill="#208E45"/>
<path d="M254.057 273.441L253.778 270.496H263.241L262.802 273.441H254.057Z" fill="#55A55C"/>
<path d="M261.904 270.496L261.854 268.679L256.284 270.496H261.904Z" fill="#208E45"/>
<path d="M212.26 290.93H219.508L218.03 292.967L212.26 290.93Z" fill="#873F32"/>
<path d="M254.976 273.441H261.435L261.445 275.927L254.976 273.441Z" fill="#873F32"/>
<path d="M235.13 248.574C235.13 248.574 236.378 248.954 240.731 250.171C243.064 250.873 245.492 251.21 247.928 251.17L246.441 247.286L240.731 244.082L240.93 236.096L238.854 240.089C238.599 240.61 238.284 241.099 237.916 241.546C236.503 243.224 234.815 244.649 232.924 245.759L228.442 248.385C230.243 247.631 232.259 247.571 234.102 248.215" fill="#A9D8B5"/>
<path d="M247.968 251.2C247.968 251.2 250.294 245.979 252.959 243.293C255.625 240.608 258.25 241.197 260.756 237.883C263.261 234.569 256.344 226.343 256.344 226.343C254.456 226.798 252.479 226.718 250.633 226.113L242.278 232.422C240.451 237.969 237.828 243.222 234.492 248.015L247.968 251.2Z" fill="#A9D8B5"/>
<path d="M287.918 228.709H286.76C285.658 228.709 284.764 229.603 284.764 230.705V232.802C284.766 233.438 284.366 234.007 283.766 234.219L269.94 238.831L259.298 229.607C257.591 228.08 254.786 227.541 253.129 229.138C252.233 230.005 251.757 231.217 251.824 232.462C251.891 233.707 252.494 234.861 253.478 235.627L267.234 246.308C268.112 246.997 269.326 247.069 270.279 246.488L287.918 235.208C289.211 234.379 289.993 232.95 289.995 231.414V230.705C289.995 230.162 289.774 229.641 289.382 229.265C288.99 228.888 288.462 228.687 287.918 228.709Z" fill="#A25A4B"/>
<path d="M258.41 208.324C258.41 206.169 256.662 204.421 254.507 204.421C252.351 204.421 250.604 206.169 250.604 208.324C250.605 208.573 250.632 208.82 250.683 209.063C249.326 209.862 246.161 212.257 247.639 216.55C243.473 217.404 239.825 219.897 237.516 223.468C233.393 229.597 238.165 233.96 238.165 233.96C238.165 233.96 244.674 238.602 248.986 232.243C251.696 228.138 253.788 223.658 255.196 218.946C255.196 218.946 257.012 216.43 256.194 214.863C255.535 213.625 256.304 212.208 256.913 211.389C257.805 210.612 258.345 209.506 258.41 208.324Z" fill="#842D1B"/>
<ellipse cx="255.52" cy="217.018" rx="1.15798" ry="1.42751" transform="rotate(-75.8 255.52 217.018)" fill="#A25A4B"/>
<path d="M284.644 220.283L282.168 221.701L282.887 219.195H285.163L284.644 220.283Z" fill="#873F32"/>
<path opacity="0.5" d="M237.327 246.438C241.915 246.966 246.45 245.077 249.306 241.447" stroke="#55A55C" stroke-linecap="round"/>
<path d="M356.01 146.991L258.879 304.167" stroke="#D4E1F3" stroke-width="2" stroke-linecap="round"/>
<path d="M315.63 169.552H342.074" stroke="#D4E1F3" stroke-width="2" stroke-linecap="round"/>
<path d="M364.495 304.547C364.495 300.191 368.026 296.66 372.381 296.66C376.737 296.66 380.268 300.191 380.268 304.547" stroke="#D4E1F3" stroke-linecap="round"/>
<path d="M337.123 220.932L338.95 216.81C339.571 215.393 340.578 214.179 341.855 213.306L343.132 212.437L345.548 215.332C346.546 216.48 348.543 218.517 348.164 219.944L346.876 222.59L343.082 226.113L337.123 220.932Z" fill="#ECA880"/>
<path d="M330.794 217.858L335.725 228.689L330.794 237.883C330.794 237.883 327.619 236.276 321.859 223.009L330.794 217.858Z" fill="#C24739"/>
<path opacity="0.5" d="M313.115 304.527H336.474" stroke="#D4E1F3" stroke-linecap="round"/>
<path opacity="0.5" d="M359.594 304.527H382.953" stroke="#D4E1F3" stroke-linecap="round"/>
<path d="M338.49 265.145C336.384 260.853 334.308 256.161 332.331 251C322.113 263.623 316.818 279.523 317.427 295.752H325.064C326.701 287.257 330.375 274.609 338.49 265.145Z" fill="#DDDFE0"/>
<path d="M325.064 295.752H318.795C318.845 296.95 318.914 298.158 319.034 299.386H324.435C324.605 298.288 324.804 297.08 325.064 295.752Z" fill="#ECA880"/>
<path d="M368.239 295.752H361.131C362.778 297.589 363.996 298.747 364.625 299.386H370.614C369.803 298.168 369.011 296.957 368.239 295.752Z" fill="#ECA880"/>
<path d="M349.421 253.416C349.421 253.416 352.266 253.286 351.588 249.423C350.999 246.079 349.062 246.069 348.173 241.117C347.285 236.166 345.987 248.285 345.987 248.285L349.421 253.416Z" fill="#DA513E"/>
<ellipse cx="335.728" cy="220.433" rx="5.15103" ry="1.91666" transform="rotate(-30 335.728 220.433)" fill="#A42422"/>
<path d="M338.49 265.145C343.78 276.213 350.55 286.51 358.615 295.752H368.238C354.013 273.491 349.421 253.416 349.421 253.416C339.948 248.954 332.331 251.01 332.331 251.01L340.617 262.849C339.878 263.608 339.169 264.373 338.49 265.145Z" fill="#EBEBEB"/>
<path d="M340.617 262.839L332.331 251.01C334.328 256.151 336.384 260.863 338.49 265.155C339.169 264.377 339.878 263.605 340.617 262.839Z" fill="#EBEBEB"/>
<path opacity="0.25" d="M326.102 291.03L325.663 292.867H319.833L326.102 291.03Z" fill="#9A9FA5"/>
<path d="M325.443 295.752L326.102 292.867H316.868L317.427 295.752H325.443Z" fill="#DDDFE0"/>
<path d="M365.334 291.03L366.432 292.867H360.412L365.334 291.03Z" fill="#DDDFE0"/>
<path d="M368.828 295.752L367.25 292.867H355.451L358.146 295.752H368.828Z" fill="#EBEBEB"/>
<path d="M361.131 295.752L369.277 297.359L368.229 295.752H361.131Z" fill="#E8976F"/>
<path d="M318.795 295.752L324.794 297.179L325.054 295.752H318.795Z" fill="#E8976F"/>
<path d="M340.187 217.858L331.842 195.766C331.413 194.632 331.512 193.366 332.111 192.312C332.271 192.043 333.239 190.585 333.329 190.435C333.626 189.935 333.709 189.336 333.561 188.773C333.413 188.211 333.045 187.731 332.541 187.441L329.466 192.432L329.206 192.861C328.629 193.807 328.476 194.952 328.787 196.016C330.784 202.914 335.715 222.559 335.715 222.559C336.386 222.243 337.031 221.872 337.642 221.451C339.109 220.453 340.726 218.936 340.187 217.858Z" fill="#ECA880"/>
<mask id="mask8" mask-type="alpha" maskUnits="userSpaceOnUse" x="329" y="217" width="21" height="37">
<path d="M349.421 253.416L332.331 251.01C332.331 251.01 326.342 236.705 332.89 227.231L331.283 223.059L340.137 217.758C340.137 217.758 348.124 227.88 349.421 253.426" fill="#DA513E"/>
</mask>
<g mask="url(#mask8)">
<path d="M349.421 253.416L332.331 251.01C332.331 251.01 326.342 236.705 332.89 227.231L331.283 223.059L340.137 217.758C340.137 217.758 348.124 227.88 349.421 253.426" fill="#DA513E"/>
<path d="M338.49 242.445C340.428 245.558 343.475 247.82 347.016 248.774" stroke="#B8332A"/>
<path d="M335.136 234.379L331.832 225.904" stroke="#B8332A"/>
</g>
<path d="M351.528 215.422L351.029 213.875C350.657 212.572 349.488 211.656 348.134 211.609H347.874C347.007 211.603 346.181 211.242 345.588 210.61L344.72 209.702C344.299 209.269 343.672 209.108 343.096 209.285C342.519 209.462 342.09 209.947 341.984 210.541L340.746 214.204C340.746 214.204 341.196 213.795 341.345 213.675C341.775 213.346 343.112 212.447 343.112 212.447L344.749 215.043C345.244 215.729 345.439 216.586 345.289 217.419L345.019 218.966L345.119 218.906C345.655 218.55 346.353 218.551 346.888 218.909C347.423 219.266 347.692 219.91 347.569 220.542C347.447 221.173 346.957 221.67 346.327 221.801C345.99 221.943 345.622 221.995 345.259 221.951L343.641 224.337L344.34 226.123L349.491 222.939C351.633 221.079 352.437 218.109 351.528 215.422Z" fill="#674424"/>
<ellipse cx="326.335" cy="220.428" rx="5.15103" ry="1.91666" transform="rotate(-30 326.335 220.428)" fill="#C24739"/>
<path d="M372.571 303.179C371.782 301.662 371.493 300.933 370.624 299.386H364.635C362.948 300.384 359.783 301.662 357.887 303.009C357.742 303.114 357.628 303.255 357.557 303.419H372.671C372.642 303.337 372.609 303.257 372.571 303.179Z" fill="#5B7FC0"/>
<path d="M358.655 305.046H371.633C372.016 305.031 372.366 304.826 372.567 304.499C372.767 304.172 372.791 303.767 372.631 303.419H357.547C357.411 303.785 357.461 304.195 357.681 304.518C357.901 304.841 358.264 305.038 358.655 305.046Z" fill="#B1C9E9"/>
<path d="M311.757 305.046H322.977C323.453 305.047 323.849 304.682 323.886 304.207C323.886 303.988 323.936 303.718 323.966 303.419H311.198C310.89 303.657 310.768 304.065 310.894 304.433C311.021 304.801 311.368 305.047 311.757 305.046Z" fill="#B1C9E9"/>
<path d="M324.435 299.386H319.034L311.228 303.379H323.976C324.026 302.44 324.185 301.063 324.435 299.386Z" fill="#5B7FC0"/>
<path d="M377.952 298.298C380.837 292.736 387.149 289.866 393.237 291.348C399.325 292.831 403.611 298.281 403.617 304.547" stroke="#D4E1F3" stroke-linecap="round"/>
<path d="M411.383 298.188C414.269 292.626 420.581 289.756 426.669 291.239C432.757 292.721 437.043 298.171 437.049 304.437" stroke="#D4E1F3" stroke-linecap="round"/>
<path d="M437.049 304.547C437.049 300.191 440.579 296.661 444.935 296.661C449.29 296.661 452.821 300.191 452.821 304.547" stroke="#D4E1F3" stroke-linecap="round"/>
<path d="M400.372 295.732C403.334 294.469 406.732 294.776 409.42 296.55C412.107 298.323 413.726 301.327 413.729 304.547" stroke="#D4E1F3" stroke-linecap="round"/>
<path d="M380.387 258.467V294.754" stroke="#D4E1F3" stroke-linecap="round"/>
<path d="M390.789 294.963V303.538L386.696 299.446" stroke="#D4E1F3" stroke-linecap="round" stroke-linejoin="round"/>
<path d="M422.474 294.963V303.538L418.381 299.446" stroke="#D4E1F3" stroke-linecap="round" stroke-linejoin="round"/>
<path d="M380.387 275.188L386.886 268.689" stroke="#D4E1F3" stroke-linecap="round"/>
<path d="M380.267 266.134L375.646 261.512" stroke="#D4E1F3" stroke-linecap="round"/>
<path d="M390.789 300.604L393.784 297.609" stroke="#D4E1F3" stroke-linecap="round"/>
<rect x="370.415" y="244.491" width="19.9353" height="38.6726" rx="9.96763" stroke="#D4E1F3" stroke-linecap="round"/>
<path d="M94.0162 276.336H170.014C171.513 276.336 172.729 275.12 172.729 273.621C172.729 272.121 171.513 270.906 170.014 270.906H94.0162" fill="white"/>
<path d="M94.0162 276.336H170.014C171.513 276.336 172.729 275.12 172.729 273.621V273.621C172.729 272.121 171.513 270.906 170.014 270.906H94.0162" stroke="#D4E1F3" stroke-linecap="round"/>
<path opacity="0.5" d="M174.466 304.287H188.122" stroke="#D4E1F3" stroke-linecap="round"/>
<path opacity="0.5" d="M58.548 304.167H165.821" stroke="#D4E1F3" stroke-linecap="round"/>
<rect x="142.432" y="276.326" width="81.4281" height="5.43054" rx="2.71527" transform="rotate(-180 142.432 276.326)" fill="white" stroke="#D4E1F3" stroke-linecap="round"/>
<path d="M174.466 304.287L168.676 276.336" stroke="#D4E1F3" stroke-linecap="round"/>
<path d="M91.3109 245.05L91.7401 242.914" stroke="#D4E1F3" stroke-linecap="round"/>
<path d="M88.9451 256.91L89.9333 251.969" stroke="#D4E1F3" stroke-linecap="round"/>
<path d="M86.1599 270.905L87.7272 263.029" stroke="#D4E1F3" stroke-linecap="round"/>
<path d="M167.508 245.05L167.927 242.914" stroke="#D4E1F3" stroke-linecap="round"/>
<path d="M165.142 256.91L166.131 251.969" stroke="#D4E1F3" stroke-linecap="round"/>
<path d="M162.357 270.905L163.924 263.029" stroke="#D4E1F3" stroke-linecap="round"/>
<path d="M143.61 276.336L149.04 304.287" stroke="#D4E1F3" stroke-linecap="round"/>
<path d="M58.548 303.578L63.9685 276.336" stroke="#D4E1F3" stroke-linecap="round"/>
<rect x="177.72" y="251.26" width="94.9546" height="5.43054" rx="2.71527" transform="rotate(-180 177.72 251.26)" fill="white" stroke="#D4E1F3" stroke-linecap="round"/>
<rect x="174.137" y="262.34" width="94.9546" height="5.43054" rx="2.71527" transform="rotate(-180 174.137 262.34)" fill="white" stroke="#D4E1F3" stroke-linecap="round"/>
<path d="M83.2649 251.22C75.9376 253.778 67.9278 253.568 60.7441 250.631" stroke="#D4E1F3" stroke-linecap="round"/>
<path d="M41.5875 226.633C39.063 211.538 47.7091 196.802 62.1171 191.642C76.5251 186.483 92.5602 192.38 100.192 205.646C107.823 218.911 104.861 235.738 93.1577 245.6" stroke="#D4E1F3" stroke-linecap="round"/>
<path d="M72.7732 276.336V303.309" stroke="#D4E1F3" stroke-linecap="round"/>
<path d="M72.7732 209.423V270.905" stroke="#D4E1F3" stroke-linecap="round"/>
<path d="M72.7732 232.053L91.1412 213.695" stroke="#D4E1F3" stroke-linecap="round"/>
<path d="M72.5836 244.671L60.2251 232.313" stroke="#D4E1F3" stroke-linecap="round"/>
<path d="M59.5262 238.801H66.6438" stroke="#D4E1F3" stroke-linecap="round"/>
<path d="M82.3765 222.869H92.2393" stroke="#D4E1F3" stroke-linecap="round"/>
<path d="M86.9186 217.908V212.308" stroke="#D4E1F3" stroke-linecap="round"/>
<path d="M72.7733 222.58L59.0272 208.833" stroke="#D4E1F3" stroke-linecap="round"/>
<circle cx="68.2311" cy="205.739" r="1.99652" stroke="#D4E1F3" stroke-linecap="round"/>
<circle cx="54.6049" cy="227.291" r="1.99652" stroke="#D4E1F3" stroke-linecap="round"/>
<circle cx="88.5357" cy="236.665" r="1.99652" stroke="#D4E1F3" stroke-linecap="round"/>
<circle cx="45.8201" cy="259.914" r="1.99652" stroke="#D4E1F3" stroke-linecap="round"/>
<circle cx="32.5633" cy="253.067" r="27.6618" stroke="#D4E1F3" stroke-linecap="round"/>
<path d="M32.134 241.107V293.666" stroke="#D4E1F3" stroke-linecap="round"/>
<path d="M32.134 259.416L42.4361 249.114" stroke="#D4E1F3" stroke-linecap="round"/>
<path d="M31.9443 269.318L24.6171 261.991" stroke="#D4E1F3" stroke-linecap="round"/>
<path d="M31.9443 253.256L24.6171 245.929" stroke="#D4E1F3" stroke-linecap="round"/>
<path d="M13.4565 299.296C16.3418 293.734 22.6543 290.864 28.742 292.346C34.8298 293.829 39.1164 299.279 39.1218 305.545" stroke="#D4E1F3" stroke-linecap="round"/>
<path d="M0 305.545C6.49014e-08 301.19 3.5308 297.659 7.88626 297.659C12.2417 297.659 15.7725 301.19 15.7725 305.545" stroke="#D4E1F3" stroke-linecap="round"/>
<path d="M26.2843 295.962V304.537L22.1914 300.444" stroke="#D4E1F3" stroke-linecap="round" stroke-linejoin="round"/>
<path d="M26.2842 301.602L29.279 298.607" stroke="#D4E1F3" stroke-linecap="round"/>
<path d="M93.1577 276.336L87.7272 303.578" stroke="#D4E1F3" stroke-linecap="round"/>
<path d="M124.443 240.798C126.976 240.789 129.101 238.883 129.385 236.366H126.32V234.25H123.405V236.675H119.552C119.972 239.051 122.031 240.787 124.443 240.798Z" fill="#D48E64"/>
<mask id="mask9" mask-type="alpha" maskUnits="userSpaceOnUse" x="105" y="236" width="36" height="25">
<path d="M129.385 236.366C129.061 238.785 127.034 240.615 124.594 240.692C122.155 240.769 120.017 239.069 119.542 236.675H116.238C113.68 236.923 111.214 237.757 109.03 239.111C106.949 240.536 105.704 242.897 105.704 245.42C105.704 247.943 106.949 250.303 109.03 251.729C109.988 252.348 111.08 252.731 112.215 252.847C112.215 252.847 112.574 258.158 111.067 260.643H128.836L140.176 236.366L129.385 236.366Z" fill="#FDD663"/>
</mask>
<g mask="url(#mask9)">
<path d="M129.385 236.366C129.061 238.785 127.034 240.615 124.594 240.692C122.155 240.769 120.017 239.069 119.542 236.675H116.238C113.68 236.923 111.214 237.757 109.03 239.111C106.949 240.536 105.704 242.897 105.704 245.42C105.704 247.943 106.949 250.303 109.03 251.729C109.988 252.348 111.08 252.731 112.215 252.847C112.215 252.847 112.574 258.158 111.067 260.643H128.836L140.176 236.366L129.385 236.366Z" fill="#FDD663"/>
<path d="M111.506 243.024C111.506 243.024 113.752 249.423 122.367 249.064" stroke="#F9BC15"/>
<path d="M122.327 253.636C117.978 254.31 113.53 253.944 109.35 252.567" stroke="#F9BC15"/>
</g>
<path d="M125.501 236.366H130.493C130.493 236.366 132.559 221.392 123.704 221.392C114.85 221.392 115.089 232.433 115.089 239.061C115.089 239.57 115.149 242.575 115.239 243.004H123.395V234.269V226.733C123.4 226.538 123.56 226.383 123.754 226.383H127.887L125.501 234.249V236.366Z" fill="#674424"/>
<path d="M123.395 234.249H125.591C126.568 234.269 127.473 233.741 127.937 232.882C128.391 231.882 128.573 230.78 128.466 229.687C128.366 227.281 128.107 226.633 127.967 226.453C127.936 226.407 127.883 226.38 127.827 226.383H123.585C123.482 226.388 123.4 226.47 123.395 226.573V234.249Z" fill="#D48E64"/>
<path d="M125.501 235.477V234.25H123.395L125.501 235.477Z" fill="#CE835A"/>
<path d="M111.087 260.643C111.087 260.643 103.19 260.853 100.515 267.731C97.8396 274.609 97.8496 282.286 97.8496 289.972H104.468C104.468 289.972 104.887 279.49 106.744 275.308C106.744 275.308 108.122 269.997 119.612 269.997L127.967 260.643H111.087Z" fill="#EBEBEB"/>
<mask id="mask10" mask-type="alpha" maskUnits="userSpaceOnUse" x="87" y="260" width="31" height="30">
<path d="M100.974 260.643C100.974 260.643 93.0779 260.853 90.4025 267.731C87.7272 274.609 87.7372 282.286 87.7372 289.942H94.3756C94.3756 289.942 94.7949 279.461 96.6517 275.278C96.6517 275.278 99.1673 267.941 109.519 269.967L117.875 260.614L100.974 260.643Z" fill="#EBEBEB"/>
</mask>
<g mask="url(#mask10)">
<path d="M100.974 260.643C100.974 260.643 93.0779 260.853 90.4025 267.731C87.7272 274.609 87.7372 282.286 87.7372 289.942H94.3756C94.3756 289.942 94.7949 279.461 96.6517 275.278C96.6517 275.278 99.1673 267.941 109.519 269.967L117.875 260.614L100.974 260.643Z" fill="#EBEBEB"/>
<path fill-rule="evenodd" clip-rule="evenodd" d="M111.765 259.915C110.751 259.912 109.742 260.06 108.771 260.354C106.335 261.113 101.883 263.039 100.066 267.731C97.3704 274.599 97.3704 282.286 97.3704 289.942H103.979C103.979 289.942 104.408 279.461 106.265 275.278C106.265 275.278 108.771 267.941 119.122 269.967L127.039 259.885L111.765 259.915Z" stroke="#DDDFE0"/>
</g>
<rect x="87.7372" y="289.972" width="5.09113" height="2.02647" fill="#D48E64"/>
<rect x="97.8496" y="289.972" width="5.09113" height="2.02647" fill="#D48E64"/>
<path d="M102.941 291.999V294.075C102.941 294.826 102.639 295.546 102.102 296.072L97.8196 300.224C97.4439 300.582 96.8724 300.638 96.4349 300.359C95.9973 300.08 95.8066 299.538 95.9729 299.047L97.8496 293.646V291.999H102.941Z" fill="#ED675C"/>
<path d="M92.8283 291.999H87.7372V293.646L85.8604 299.047C85.7052 299.456 85.816 299.919 86.14 300.214L92.8283 293.866V291.999Z" fill="#ED675C"/>
<path d="M87.7072 300.224L91.9897 296.072C92.5261 295.546 92.8283 294.826 92.8282 294.075V293.865L86.1399 300.214C86.5722 300.645 87.2695 300.649 87.7072 300.224Z" fill="#F7AEA9"/>
<path d="M97.8196 300.224L102.102 296.072C102.639 295.546 102.941 294.826 102.941 294.075V293.865L96.2523 300.214C96.6846 300.645 97.3819 300.649 97.8196 300.224Z" fill="#F7AEA9"/>
<path d="M148.282 234.679C148.282 234.679 146.285 234.269 145.826 231.394C145.41 230.927 144.945 230.505 144.438 230.137C144.587 229.891 144.692 229.62 144.748 229.338C144.898 228.34 144.508 227.531 143.869 227.421C143.231 227.312 142.582 228 142.422 228.949C140.345 228.018 138.044 227.702 135.793 228.04C135.793 228.04 136.522 236.735 141.783 234.03L142.083 234.699C142.177 234.955 142.162 235.239 142.041 235.485C141.921 235.73 141.705 235.915 141.444 235.996C140.293 236.282 139.176 236.686 138.109 237.204C139.967 239.071 142.598 239.949 145.205 239.571C147.811 239.194 150.085 237.605 151.336 235.288C150.348 234.957 149.321 234.753 148.282 234.679Z" fill="#E6C1A9"/>
<mask id="mask11" mask-type="alpha" maskUnits="userSpaceOnUse" x="115" y="235" width="44" height="52">
<path d="M151.356 235.288C150.105 237.605 147.831 239.193 145.225 239.571C142.618 239.949 139.987 239.071 138.129 237.204C135.504 238.472 132.609 240.808 132.14 244.991V260.234H126.56C126.56 260.234 119.891 261.732 117.745 268.22C115.599 274.709 115.339 281.507 115.339 286.369H137.71C137.71 286.369 137.221 276.536 141.344 270.107H147.902C154.311 270.107 157.326 261.552 158.184 256.6C159.472 249.183 159.462 238.033 151.356 235.288Z" fill="#91B2DD"/>
</mask>
<g mask="url(#mask11)">
<path d="M151.356 235.288C150.105 237.605 147.831 239.193 145.225 239.571C142.618 239.949 139.987 239.071 138.129 237.204C135.504 238.472 132.609 240.808 132.14 244.991V260.234H126.56C126.56 260.234 119.891 261.732 117.745 268.22C115.599 274.709 115.339 281.507 115.339 286.369H137.71C137.71 286.369 137.221 276.536 141.344 270.107H147.902C154.311 270.107 157.326 261.552 158.184 256.6C159.472 249.183 159.462 238.033 151.356 235.288Z" fill="#91B2DD"/>
<path d="M144.978 265.106C144.978 265.106 140.535 271.275 139.357 275.687" stroke="#7198CF"/>
<path d="M156.927 239.201C158.755 242.805 158.933 247.025 157.416 250.771H149.28C149.858 248.759 150.144 246.674 150.129 244.581" stroke="#7198CF"/>
</g>
<path d="M141.803 234.03L144.309 232.622L142.152 234.848L141.803 234.03Z" fill="#DEB093"/>
<mask id="mask12" mask-type="alpha" maskUnits="userSpaceOnUse" x="141" y="251" width="15" height="9">
<path d="M141.683 256.76L143.56 259.506C151.416 259.506 155.04 252.987 155.878 251.22H150.278C148.282 255.463 141.683 256.76 141.683 256.76Z" fill="#E6C1A9"/>
</mask>
<g mask="url(#mask12)">
<path d="M141.683 256.76L143.56 259.506C151.416 259.506 155.04 252.987 155.878 251.22H150.278C148.282 255.463 141.683 256.76 141.683 256.76Z" fill="#E6C1A9"/>
<path d="M149.609 251.579L155.878 253.137L156.547 250.691L150.468 249.972L149.609 251.579Z" fill="#DEB093"/>
</g>
<mask id="mask13" mask-type="alpha" maskUnits="userSpaceOnUse" x="142" y="220" width="9" height="8">
<circle cx="146.275" cy="223.907" r="3.80337" fill="#DDDFE0"/>
</mask>
<g mask="url(#mask13)">
<circle cx="146.275" cy="223.907" r="3.80337" fill="#DDDFE0"/>
<path opacity="0.25" d="M140.296 222.909C140.296 222.909 145.756 223.189 147.603 227.96L143.949 229.498L139.108 222.699L140.296 222.909Z" fill="#9A9FA5"/>
</g>
<path d="M145.806 226.952C145.488 225.899 144.923 224.938 144.159 224.147C143.177 223.215 141.829 222.771 140.485 222.939C138.269 223.133 136.415 224.7 135.853 226.852C135.797 227.132 135.77 227.416 135.773 227.701V228.05C135.773 228.05 139.846 227.96 141.763 228.819L142.352 229.108C142.347 229.059 142.347 229.008 142.352 228.959C142.512 227.96 143.161 227.321 143.799 227.431C144.438 227.541 144.798 228.43 144.678 229.348C144.621 229.705 144.489 230.045 144.289 230.346C145.147 230.945 145.756 231.444 145.756 231.444C145.756 231.444 146.854 230.107 145.806 226.952Z" fill="#DDDFE0"/>
<path d="M145.097 260.643H126.39C125.589 260.64 124.853 260.205 124.463 259.505L117.066 246.238C116.928 245.991 116.931 245.689 117.075 245.444C117.219 245.2 117.481 245.05 117.765 245.051H135.105C135.904 245.05 136.641 245.481 137.031 246.179L145.097 260.643Z" fill="#EBEBEB"/>
<rect x="138.139" y="259.186" width="12.2586" height="1.45746" fill="#EBEBEB"/>
<mask id="mask14" mask-type="alpha" maskUnits="userSpaceOnUse" x="118" y="284" width="18" height="22">
<path d="M129.315 286.368H128.047C128.336 282.715 127.957 286.368 127.957 286.368H121.219C121.349 291.07 122.517 295.912 123.295 300.893C123.361 301.553 122.977 302.175 122.357 302.411L118.903 303.918C118.538 304.066 118.33 304.453 118.408 304.839C118.486 305.225 118.828 305.501 119.222 305.495H131.591C132.371 305.49 133.003 304.858 133.008 304.078C133.187 298.143 133.855 292.233 135.005 286.408L129.315 286.368Z" fill="#E6C1A9"/>
</mask>
<g mask="url(#mask14)">
<path d="M129.315 286.368H128.047C128.336 282.715 127.957 286.368 127.957 286.368H121.219C121.349 291.07 122.517 295.912 123.295 300.893C123.361 301.553 122.977 302.175 122.357 302.411L118.903 303.918C118.538 304.066 118.33 304.453 118.408 304.839C118.486 305.225 118.828 305.501 119.222 305.495H131.591C132.371 305.49 133.003 304.858 133.008 304.078C133.187 298.143 133.855 292.233 135.005 286.408L129.315 286.368Z" fill="#E6C1A9"/>
<path d="M136.203 291.31L120.7 288.804V285.959H136.332L136.203 291.31Z" fill="#DEB093"/>
<path d="M123.954 305.914C123.503 305.831 123.157 305.466 123.098 305.011C123.039 304.556 123.28 304.114 123.695 303.918L127.139 302.45C127.741 302.194 128.117 301.586 128.077 300.933C127.818 296.095 127.818 291.247 128.077 286.408" stroke="#D3987A"/>
</g>
<path d="M158.803 240.648C159.362 242.176 159.422 243.703 157.895 244.262C156.371 244.813 154.688 244.025 154.136 242.5C153.585 240.976 154.374 239.293 155.898 238.742C157.396 238.183 158.264 239.131 158.803 240.648Z" fill="#D48E64"/>
<path d="M162.557 303.269L154.76 264.157C154.442 262.959 154.712 261.68 155.489 260.713C156.265 259.746 157.454 259.205 158.694 259.256V259.256C161.537 259.371 163.948 261.381 164.573 264.157" stroke="#3F70B7" stroke-linecap="round"/>
<path d="M162.627 303.588L162.427 302.6" stroke="#3768B2" stroke-width="2" stroke-linecap="round"/>
</svg>
