<svg width="2880" height="800" viewBox="0 0 2880 800" fill="none" xmlns="http://www.w3.org/2000/svg"><path fill="#fff" d="M0 0h2880v800H0z"/><g clip-path="url(#a)"><path d="M2884.8-2.4H4.8v756h2880v-756Z" fill="#7ECDED"/><path d="M2884-2H-4v758h2888V-2Z" fill="#7ECDED"/><path d="M1744.9 697.9c-34.4-38.1-53-50.8-79-85.6-5.8-7.8-17.3-27.4 4.8-43.5 23.2-17 57.6 8.8 62.4 17a54.2 54.2 0 0 1 10.7-40.5 29.3 29.3 0 0 1 47.5 1.7c5.3 9.3 11.8 27.4 11.2 37.3 6.8-14.3 36.2-42.7 63.3-28.4 11 5.8 17.2 21.7 4.6 40.4-7.4 11-5.3 11.9-15.7 20.9-39 34-73 77.4-114.7 109.2l4.9-28.5Z" fill="#407070"/><path d="M-175.9 392.3c7.7-34 19.3-51.2 44.2-85.2 12-16.5 29.2-38.9 48.3-43.8 20.4-5.3 42.5 13.6 41.5 35.4C-30.7 283-14 269.4 4.4 269.4c18.6 0 36.7 19.3 30.8 37.9 12.9-15.4 35.3-23 52.6-14.3 17.3 8.7 24.6 35.4 11.9 50.9 13.5-10.3 34.2-4.8 43.3 9.4 9.2 14.2 7.5 34.2-1.4 49 20.2-5.3 41.8 14.6 39.3 36-1.6 13.8-11.3 25.4-21.8 34.2-34.7 29-62.2 21.8-102 38.3C15 528.2-4.2 537.4-41.5 554c-22.3 9.8-113 87-113 87s-12.4-79.8-16.9-133.9c-1.4-17-4.5-114.9-4.5-114.9Z" fill="#488784"/><path d="M512.3 563.4C519.6 450 432 366 405 336c-9.1-10.2-26-11.9-46.2-5.7-214 66-365.5 220.3-391.2 239.3-38.9 28.7-45 49.1-49.8 61.1-16 40.6-47 174.6-13.4 192.2 67.2 35.2 425.8 59.3 646 57.1-16.2-50-49.4-152.1-80.8-197.7L447.9 652c.6-2.5.9-5 .7-7.6-2-25.7 61.4-44.3 63.7-81.1Z" fill="#5193CF"/><path d="M582.1 484.3a523.7 523.7 0 0 0-106.4 170c-21.4 58 9.3 134.5 30.4 204.6C546.4 727.7 598 593.8 673.5 478c-39.6 3.7-84.2 6.5-91.4 6.3Z" fill="#A9D8F5"/><path d="M628.8 770c11-107.2 54-204.1 122-300.5-28.5 2.8-48.7 5.9-77.2 8.5C598 593.8 546.4 727.7 506 859c9.8 32.5 17.4 63.6 16.9 90.8 37.5 1.7 78 .4 106.3 0-7-52.4-5.4-127-.5-179.7Z" fill="#C4E5FA"/><path d="M838.5 441c-32.4 9.6-59.9 12.6-87.7 28.5-68 96.4-111 193.3-122 300.5-5 52.7 1.8 127.3 8.9 179.8h79c-6-134.2 23-288.6 73.3-419.8 14-36.7 21.5-57.6 48.5-89ZM958.2 436.7c-14.9-4.4-41.2-5.3-55.5-5.2A710.3 710.3 0 0 0 853 629.8c-10.9 99.4-21 218-28 316.8 30.8.1 66.3-3 99.1-2.8 45-168.3 44.3-339.2 34-507.1Z" fill="#A9D8F5"/><path d="M1034.7 470.4a454.2 454.2 0 0 0-76.5-33.7c10.2 168 11 338.8-34.1 507 43 .3 87.1-3.2 131.1-3.2 33-158.1 39.1-316.2-20.5-470.1Z" fill="#C4E5FA"/><path d="M1034.7 470.4c59.6 154 53.4 312 20.5 470 43 0 85.8-12.4 127.5-13 14.4-148.5-1.8-286.4-76.5-424.6-26.7-8-46.6-18.8-71.5-32.4ZM1255.8 521.2c-25-8-27.8-7.4-75.1-13.2 73.2 139.5 116.2 267 120 416.8 37.8-1.3 73-3 104.8-5.5-9.2-71.7-5.4-146.6-43.4-213-20.4-100.2-94.8-181.4-106.3-185Z" fill="#A9D8F5"/><path d="M1438.5 692.5c-16.8-42.8-42.7-78.5-64.8-117.3-34.4-14.6-71.3-44.1-118.4-54 84.6 83.1 137.8 325.5 147 397.2 12.8-1 25-2 36.5-3.2 8.3-.9 33-7 65.3-17.2a854 854 0 0 0-38.7-139.5l-27-66Z" fill="#C4E5FA"/><path d="m1376.1 576.3-2.4-1c22 38.7 48 74.4 64.8 117.2l27 66A852 852 0 0 1 1504 898a933.1 933.1 0 0 0 115-45 897.5 897.5 0 0 0-151.7-272.7c-34.5 4.3-66 6.6-91.3-4Z" fill="#A9D8F5"/><path d="M1467.4 580.2A897.5 897.5 0 0 1 1619.2 853c30.4-14.5 65.9-34.6 89-52.9-37.5-85.4-96.2-160-158.6-228.7-28.2 1-56 5.6-82.2 9Z" fill="#C4E5FA"/><path d="M1750.2 699.2c-101.1-110.5-98.6-124-200.6-128 62.4 68.9 122.6 146.8 160.2 232.2 39.5-31.2 69.1-72.7 40.4-104.2Z" fill="#A9D8F5"/><path d="M1106.2 502.8c74.7 138.2 90.9 276 76.5 424.7 41-.5 80.7-1.4 118-2.7-3.8-149.9-46.8-277.3-120-416.8-27-2.3-56.1-2.9-74.5-5.2ZM838.5 441c-27 31.4-36 52.3-48.5 89-48.4 131.9-79.3 285.6-73.3 419.8 34.1-.2 68.8-3.3 108.2-3.2 7.1-98.9 17.2-217.4 28.1-316.9a711 711 0 0 1 49.8-198.2c-25.4 0-64.1 9.5-64.3 9.6Z" fill="#C4E5FA"/><path d="M1814.4 236c5.6-2.2 12.8-23.4 34.2-22.6 13 .5 23.6 13 23.6 13 5-1.3 13.1-25 41.1-24.8 15 0 23.6 20 25.4 19.5 1.7-.6 4.4-3 6.5-5 10.7-9.7 25-14 34.2-3.7 2.9 3.2 7.7 15.6 9 16.1 1.6.8 13-6.4 27.6-5 23.5 2.3 6.8 28.6-2.4 35.2-22.5 16.3-48.8 17.6-75.4 14.5-26.7-3.1-57.5-7-84.3.6a181.9 181.9 0 0 1-41.7 5c-37.9.6-48.8-27-39.3-36.8 21.5-22.5 41.5-6 41.5-6Z" fill="#A9D8F5"/><path d="M543 444.3c-21.7-3.2-50-.3-65.5 46.2-1.3 4-6.2 0-9.3-2.7-11.5-10.1-37.3-33-79.3-27.2-40.9 5.5-53.5 52-57.7 71-1 4.5-7.1 1.2-11.2-1-19-10.2-65.7-29.4-97 8.4-19.2 23.2-15.8 63-9.4 82-43.7-26.5-80-10.5-95.7 14-21.9 34 5.3 79.5 5.3 79.5s-49-3.2-62.4 19.5c-19 32 34.5 32.5 34.5 32.5S57 756 44.7 772.7c-21.7 29.5 26 65.7 26 65.7s-24-6.3-29.8 9.4c-4.3 11.2 5.8 36 27.2 38.1 106.7 11 385.5-49.4 385.5-53.3 0-50.7 30.4-238 146.1-348.4 1.2-1.1-19.7-34.4-56.6-39.9Z" fill="#6CB4DD"/><path d="M1947.8 669.2a188 188 0 0 1 183.1-65.8c-7 13.2-19 23.1-31.3 31.5a258.5 258.5 0 0 1-142.7 44.1l-9.1-9.8Z" fill="#5FBA93"/><path d="M2878 657c-33-26-60.4-48-110.6-55.5-68.3-10.1-139.4-5.5-204.4 19.5-34 13-61 37-81 69-4 7-5 15-9 22-13.4 28.8-28.7 57.6-33.8 88.6 82.3-5 153.7-9.3 179-10 129.3-3.7 328 36.1 335.3-32.6.8-7.3 1.5-17.5 2.1-29.7-24-25.8-50-49.6-77.6-71.3Z" fill="#3EA596"/><path d="M2960.4 551.7v-1.2c.2-35.7-.7-72.7-2.2-109.7h-6.5c-3.2-36.4-6.2-68.3-7.1-70.8-14 .8-14.7 5-28.7 5.4-18.7 16.2-31-3.4-54.7.8-30.6 5.1-41.4 148.7-127.1 182.2-60 23.4-109.7-6.2-157.4-28.8-24.2-11.5-50.3-21.1-72.1-21.2-95.4-.3-79.2 50.9-168.4 66.9-32.5 5.8-87-18.6-132.5-7.6-63.3 15.2-167 71.4-169.5 74-27.2 18.7-8.9 49.2-40.3 51.8-62 6.8-155.5-13-213 46.5-17.8 15.3-38 34.7-43.2 56.8-15 69.2-64.4 164.4-132 184.5 46-1.8 329-94 505.2-164 48.3.2 201.2-9 328.3-16.7 5.2-31 20.5-59.8 33.9-88.6 4-7 5-15 9-22 20-32 47-56 81-69 65-25 136.1-29.6 204.4-19.5 50.1 7.4 77.5 29.5 110.5 55.5a683.7 683.7 0 0 1 77.6 71.3c2.8-52.4 4.5-140.4 4.7-176.6Z" fill="#47AFA2"/><path d="M2314 460.5c-97.3 16.7-95.3 105.1-153.7 119.3-79.3 19.1-116-30-200.5-21.9-80.9 7.7-171.1 105.1-209.6 141.3-42.3 39.8-114 52.4-159 114.4-54.2 74.7-53.8 199-5.6 197 105.4-19.8 131.9-112.1 146.9-181.3 5-22.1 20.6-54.1 39.4-70.2 8.3-7 31.2-18 40.6-20.5 61.2-17 86.7-.6 148.7-7.4 31.5-2.6 65.3-61.8 87.5-81.9 26.7-24 71.1-63.1 132.2-65.5 30-1.2 119.5-4.2 165.4-8 30-2.5 80-43.9 102.7-55.5 128.5-65.4 237.6 164.4 344-14.4-10-12.4-74.5-68.3-146.5-68.3s-86.9 73.4-153.3 70.8c-67.4-2.7-125.7-57-179.3-47.9ZM2626 338.4l2.8-1-2.9.7.2.3Z" fill="#70C1B1"/><path d="M2945 287.7c-28-5.8-152-7.2-152 218.3 45.7-80.9 155.5-110.8 176.4-125.3 60.9-42.5 7.9-86.4-24.4-93Z" fill="#A9D8F5"/><path d="M1293.7 668c-43 11.4-94.5 0-134.7-17-43-18-49.7-41-132.5-31.3-39.3 4.5-76 31.7-109 36.7-65 11-109-11.3-169-30.3-79-26-177.6-1.6-232.6 56.4-25 27-45.6 35.2-87.8 24.7-9.7-2.4-47.3-4.4-54.7-11.6-17 27.5 16.6 71 3 97.3-24.8 47.5-11.2 15-51.6 159.5 0 0 1017.8 6.7 1015.5-12-17.1-137.3 75-128.3 51.8-216.3-5.2-19.4-26.2-56.8-98.4-56.1Z" fill="#58BCAF"/><path d="M474 598c-50 18.7-75.2 60.6-100.7 97.6C380 702 400.1 713 415 717c-1.5-8.3-1.2-16.9 3-23.1 17-27 51-38 82-34 3.8.6 7.3 2.3 10 5-3.6-8.2-6.2-17-1-23 19.2-16.8 46.8-6.7 65.7 9.8 28-15.8 57.5-27.3 87.7-32.1-57.2.2-101.1-54.2-188.5-21.6Z" fill="#47AFA2"/><path d="m510 665 4 8c-.4-3-1.7-5.9-4-8Z" fill="#47AFA2"/><path d="M509 642c-5.2 6-2.6 14.8 1 23 2.3 2.1 3.6 5 4 8l-4-8a18.7 18.7 0 0 0-10-5c-31-4-65 7-82 34-4.1 6.2-4.5 14.8-3 23 1.7.5 3.3 1 4.8 1.2 37.4 6.5 76.7-10.5 103.3-31.4 16.3-13 33.5-24.6 51.6-35-18.9-16.5-46.5-26.6-65.7-9.8ZM676.8 618.4l4.5-.8c-6.3.4-12.6 1-19 2 5 0 9.7-.4 14.5-1.2ZM1164.9 562.7c-54.2.3-85.9 41-137.6 40-34.4-.6-63.2-57.2-124.8-67.2-112.7-18.2-139.2 65.2-221.2 82a178 178 0 0 1 67 8.6c9.6 3 18.7 6 27.7 9.2l3-2.3c21-16 53-13 70 9 6-29 45-27 68-20a122.6 122.6 0 0 1 38.5 24.2c22.8-14.1 47-21.8 71-26.6 62.3-6.2 89.5 13.4 132.5 31.4 40.2 17 91.7 28.4 134.7 17-24.4-60.5-62.5-105.6-128.8-105.3Z" fill="#47AFA2"/><path d="M849 642c-17-22-49-25-70-9l-3 2.3c48 16.4 91 31.9 145.7 22.6 11-1.7 22.3-4.6 33.7-11.7A122.6 122.6 0 0 0 917 622c-23-7-62-9-68 20Z" fill="#3EA596"/><path d="M180 134c29.3-16.3 42.6 2 52.5 13.8 2.4 3 6.3 6.1 9 3.5 4.4-4.2 20-53.6 48-59a42 42 0 0 1 43.6 15.4c4.8 6.4 7.6 1.7 10.3-5.6 5-13.5 8.4-22.8 20.8-34 17.6-15.9 48-22.3 68.2-12 15 7.6 32 28.7 42.3 43 1.4 2 3 4 5.2 4.5 4.1 1 7.4-4 9.7-8 17-30.2 38-62.3 69.8-66.7 31.2-4.3 61.5 14 80.2 42 9.1 13.5 14.2 38.7 7.6 54.4-8.5 20.2-28.7 23.6-48.3 25.3-138.6 11.6-257.6 31.3-389.5 82.7-15.2 6-31.2 12.2-46.8 8.9-15.6-3.4-21.4-13-17.2-30.4 0 0 5.5-61.8 34.5-77.8Z" fill="#A9D8F5"/><path d="M2431 63c-29.8-1.2-74.2-62.3-132.9-26.6-12 7.3-15 31.7-27.8 34-6.7 1.2-24-7.5-29.7-12-23.4-17.7-49.9-32-77.9-34.5-28-2.5-57.5 8.7-73 33.5-4.7 7.3-9.1 16.5-17.3 17.5-6.8.7-13-4.8-18.5-9.4C2020 37 1971 26 1934.5 46.7c-44 24.9-67.4 42.2-73.5 80.1-4.2 25.4 28.2 39.2 40.3 41.5 46.5 9 91.2 1 161.3-8.2 32.4-4.2 121.2-8.2 153.6-12.4 75.4-9.8 188.8 2.9 229.8-16 15.3-7 104.8-45 97.8-74.7-8.2-35-67.4 7.6-112.9 6Z" fill="#C4E6F9"/><path d="M1378.9 524.2c-3.3 17.5-6 50.8-6 50.8 5.2 1.9 20.5 4.4 20.5 4.4l1.6-12.4 3.6-32c.3-2 .4-6 .5-7.4-6.8-1.4-13.7-2.8-20.5-3.5l.3.1Z" fill="#488784"/><path d="M1332 453a35.9 35.9 0 0 0 13.2-17.4c-10.9-2.8-22-3.8-31.3 8.7-.9 1.2-1.7 2.4-2.3 3.7 4.4 6.3 12.4 9.8 20.4 5Z" fill="#3EA596"/><path d="M1365.9 440c-6.4 0-13.5-2.6-20.7-4.4A36 36 0 0 1 1332 453c-8 4.8-16 1.3-20.4-5-5.5 10.5-3.4 23.4 2.4 34.6 3.3.3 6.7.1 10-.6 10-2 11-13 10-21 1 12 13 15 23 13a10.4 10.4 0 0 0 8-5.1c-2.5-9.1-1.4-18.7.9-28.9Z" fill="#47AFA2"/><path d="m1408 496.8-1 .2a33.2 33.2 0 0 1-27-6c-8.4-7-13-14.4-15-22.1a10.4 10.4 0 0 1-8 5.1c-10 2-22-1-23-13 1 8 0 19-10 21-3.3.7-6.7 1-10 .6 1.3 2.5 2.8 5 4.5 7.2 9 12.5 44.3 30.1 60 34.3 6.9.7 13.7 2.1 20.5 3.5v-.5c3.9-.5 7.7-1.2 11.5-2.1-4-8.8-5-18.8-2.5-28.2Z" fill="#47AFA2"/><path d="M1439.7 481.1c-10.3 10.8-17.3 13.2-31.8 15.7a41.9 41.9 0 0 0 2.6 28.2c18.2-4.3 49.5-16 29.2-43.9Z" fill="#3EA596"/><path d="M1404 471c-9-3-20-3-28 4-2 2-3.8 4.3-5.2 6.8 2.8 3.3 5.9 6.4 9.2 9.2 8 6 15 7.1 24.2 6.9 1.6 0 3.2-.2 4.8-.4 3.6-10 3.9-22.5-5-26.5Z" fill="#65BFB0"/><path d="M1405.5 454.7s-4.6-38.5-39.6-14.7a37 37 0 0 0 5 41.8c1.3-2.5 3-4.8 5.1-6.8 8-7 19-7 28-4 8.9 4 8.6 16.6 5 26.5 18-2.4 30.4-14.7 30.6-16.4 5.2-38.7-34-26.4-34-26.4Z" fill="#5FBA93"/><path d="M1524.8 572.8c5.2-.4 17.4-2.7 17.4-2.7s-2-19-3.3-28c.8-.2 1.5-.5 2.2-.9-6.2 1.2-12.5 1.8-18.8 1.8.2 9.1 2.5 29.8 2.5 29.8Z" fill="#488784"/><path d="M1556.4 514.4c-1.6-.3-3.1-.7-4.6-1.2-5-3-9.8 2.8-9.8-4.2-3 14-22 19-32 9a31.1 31.1 0 0 1-8.7-23c-12.2 3-13.4 15.8-13 20.2.4 7.5 3 15 8.1 20.6 5.2 5.6 18.5 8.4 25.9 6.9v.3c6.3 0 12.6-.7 18.8-1.8 15.9-6.5 17.5-17.8 15.3-26.8Z" fill="#3EA596"/><path d="M1526 507a22.1 22.1 0 0 0-.1 17 81 81 0 0 0 30.5-9.5c2-6.7 2.8-13.7 2.1-20.7-12.4-1-26 1.9-32.5 13.2Z" fill="#47AFA2"/><path d="M1509.3 469.8c-11 3.5-7.4 24.8-8 25.3a31.1 31.1 0 0 0 8.7 22.9c4.3 4.3 9.6 6.1 15.9 6a22.2 22.2 0 0 1 .1-17c6.5-11.3 20.1-14.1 32.5-13.2-2.5-23.5-25.2-31.9-49.3-24Z" fill="#58BCAF"/><path d="m1526.5 573.3 13.7-.8a2.5 2.5 0 0 0 2.5-2.5 2.5 2.5 0 0 0-2.5-2.5l-13.7.8a2.5 2.5 0 0 0-2.5 2.5 2.5 2.5 0 0 0 2.5 2.5Z" fill="#273476"/><path d="M2419 136.2c-59.8 16.2-111.9-7.2-127 26.5-11 24.4 16.1 45.7 38.2 50.7 20.2 4.5 61.5 2.3 121-19.6-27.2 20-48 36-82.4 41.4-59.1 9.5-85.7-10.1-115.2-10.6-33.7-.5-52.7 21.9-47.4 41.8 9.3 35 82.5 74.4 218.8 23.8-56.2 42.9-92.1 53.8-118 56.6-56.2 6-96.7-32.4-130-1.8-37.4 34.5 15.5 72.9 37 82 26.2 11 73.4 15.4 101.6 8.4 50.3-12.7 66.4-24.4 94.4-53-26.1 58.5-65.1 138.4-93.2 196 40.1.3 51.2-7.5 64.4-15.4 28.5-64.8 63.1-120 92.3-188.8 40.6 68.3 143.1 115.5 187.2 128.6a90.6 90.6 0 0 0 78.5-13.7c11.7-8.6 17.9-32.5 2-55.9-25.7-37.9-180.5-24.2-225.4-122.6 76 56.1 167.4 71 210.5 57.3 18-5.7 40-11.9 48.5-28.7 10.4-20.7 2.2-34.7-11.9-46-26.2-21-80-.6-122-14.6-55.9-18.7-86.8-64.6-103.3-82.3 37.8 22.6 95.2 44.4 134.2 46.8 33.2 2 63.9-14.8 60.7-41.7-3.3-27.9-65.3-28.7-99.7-39.6-69.2-22-60.4-64.9-54.5-104.7 2-13.6-12.6-15.3-21.1-3.4 0 0-39 55.7-138.2 82.5Z" fill="#5193CF"/><path d="M2017.3 540a18.5 18.5 0 0 1-15-9.4 27.2 27.2 0 0 1-2.8-18c.4-3.5 1.8-7 4-9.8 4.3-5.1 11.8-8 18.5-7.9 6.5.2 34.1 2.7 28 30.4a23 23 0 0 1-19.4 17.2c-.6 7.5-2.5 23-2.5 23s-10-.4-14.3-1c.1 0 2-17.3 3.5-24.5Z" fill="#70C1B1"/><path d="M2411.5 385.2c16.5-9.8 33.7-19.6 47.5-33 3.4-3.4 6.6-7 9.5-10.8l-4.6-1.3c1 7.8 2 15.6 3.7 23.3 1.2 6 3.5 11.7 6.6 17 1.7 2.6 6 .1 4.3-2.6-2.9-4.9-5-10.2-6-15.7-1.8-7.3-2.7-14.6-3.6-22 0-.5-.2-1-.6-1.4a2.5 2.5 0 0 0-2.9-.8c-.5.2-.9.5-1.2 1a143.5 143.5 0 0 1-39.6 32.5L2409 381c-2.8 1.7-.3 6 2.5 4.3Z" fill="#273476"/><path d="M2779.4 756.5a762.5 762.5 0 0 1 40.8-185.8c7.2-20.1 15.4-40 27-56.5 18-25.7 45.2-43.7 76-50.2 28.7-6.2 58.2-2.9 86.8 4.4 7.5 1.9 15.8 4.7 20 13 1.8 3.6 2.7 7.9 3.4 12 7.8 41.9 13.7 84.9 10.5 127.6-3.1 42.8-16.3 85.6-41.5 114.3-24.1 27.4-56.6 39.2-88 49.5-36.3 12-75.4 23-110.6 6.3l-24.4-34.6Z" fill="#7ABF81"/><path d="M2663 716c-60-21-127-15-184 16-80.6 43.6-160.5 98.6-201.3 179.6 149.5-1 299-4.3 448.6-9.7a1448 1448 0 0 0 152.3-11.2c18.4-2.6 37-6 54.8-11.6-74-76.6-168.7-128.6-270.4-163.1Z" fill="#72A3D8"/><path d="M2381 704c-97 21.8-165.5 112-166 208l62.7-.3c40.2-79.7 118.2-134.3 197.4-177.6-26-23.3-57.7-38.1-94.1-30.1Z" fill="#70C1B1"/><path d="M2999.5 656.7c-24.6-20.7-56.8-29.8-88.5-35.3-20.8-3.6-42.3-6-63.2-2.2-32.4 5.7-60.4 25.2-88.5 42.6-50 31-119 60.2-172.2 34.8-32.4-15.5-64.8-66.2-94.2-87-53.5-38.1-112-35.9-161 8-34 30.4-59.7 95.7-102.3 112.3-33 13-81-19.9-116.5-21.3-109-4.5-204 101.3-227 208l39.6-6.4c96.4 1.5 192.9 2 289.3 1.8.5-95.9 69-186.2 166-208 36.4-8 68 6.8 94.1 30l3.9-2c57-31 124-37 184-16 101.7 34.5 196.4 86.5 270.4 163 13-3.9 25.7-9.3 37.5-16.2 35-20.5 61.3-56.3 67.7-96.4 6.4-40-8.1-83.5-39.1-109.7Z" fill="#5FBA93"/><path d="M576.6 807.2c-3.4-12.5-22.1 3.6-33.7-2-29-14-73.1-40.2-100.3-57.4a476.1 476.1 0 0 1-26.8-18.6c-28.6-21-60.9-45.1-82.9-67.4-35.6-36.2-68.2-73.6-148.2-153.8-84.9-85-252.4-79.2-330.2-43.3-51 23.6-82.6 80.9-96.5 135.3-9.4 36.8-4.7 75.7 3.6 112.8C-218 804.2-172 895.3-91.2 942.5c47 27.4 101.8 37.8 155.8 44.6a1271.6 1271.6 0 0 0 101 8.6c83.2 3.2 166.5-3.6 246.3-26.8 37.3-10.8 74.2-25.5 104.8-49.5 30.7-24 54.7-58.2 60.2-96.8.8-5 1.1-10.4-.3-15.4Z" fill="#7AC6B9"/><path d="M-74 590.1c-2.6-19.2 5.6-38.4 16-53.1 29-41.3 76.6-59.2 120.3-50.6a99.5 99.5 0 0 1 66.2 44.5c18.9 30.4 21.1 74.1 8.1 108.9A118.7 118.7 0 0 1 67 710.6a121.5 121.5 0 0 1-91.2-6.4A62.6 62.6 0 0 1-53.1 681c-11.3-18.5-9.8-44.5-4.8-66.8l-16.1-24Z" fill="#47AFA2"/><path d="M-182.8 369.1c61-48 157.8 28.3 196.6 96 15.6 27.3 25 58.6 45.6 82.2 26.9 30.8 54.2 54.9 94.2 62 22.6 4 202.5 81.7 202.4 148.8 0 76.8-65 53.5-86.4 64.4-21.3 10.8-45.1 15.5-68.8 18.7a643 643 0 0 1-167.7.7c-53.5-6.9-106.8-20.7-153.7-47.7-47-27-87.3-67.9-107.4-118.6a242 242 0 0 1-15.9-77c-3.7-74.4 14.8-193.1 61-229.5Z" fill="#5FBA93"/><path d="M526.9 877.7c-10.8-23.6 27.2-38.1 52.7-61.4 23.6-21.5 115.7-77 406.4-70.5 118.8 2.7 217.3 30.6 239.6 56.5 27.7 32.3 34.7 65.3 38.2 98.1-245.8-3.2-490.6-9.2-734.3-17.8l-2.6-4.9Z" fill="#47AFA2"/><path d="M1421.2 583.7c.3-3.6 11.3-22.6 19.8-20.1 5.3 1.6 6.2 5.8 6.2 10.9.8-4.7 8.9-11.6 16-10.4 8.4 1.5 4 15.4 3.9 15.7a181.7 181.7 0 0 1-45.8 4Z" fill="#5FBA93"/><path d="m1374.4 577 16.5 4a2.5 2.5 0 0 0 1.3-4.8l-16.5-4a2.5 2.5 0 0 0-1.3 4.8Z" fill="#273476"/><path d="M2582.3 703.8c-.6-9.6-2.2-17 .6-27.6 2.8-10.6 6.6-21.3 4.5-32a43.6 43.6 0 0 0-8.3-17.5 79 79 0 0 0-16.7-16.6c-8.1-6-17.5-10.7-23.3-18.7-5.8-8-6-21.2 3-26 8.8-4.8 20 2 25 10.4 5.1 8.5 6.7 18.6 11.8 27 3.2 5.1 7.6 9.4 10.7 14.5 7.3 11.8 7.6 26.3 6.1 40-1.4 13.6-6.2 25-4.4 38.6l1 7.8h-10Z" fill="#70C1B1"/><path d="M2602.2 704c-3.7-15.7-.5-26.3 3.6-42 3.6-14.1 10.5-29 4.9-42.6-3-7.5-9.5-13.1-13.5-20.2-4-7-4.8-17.3 2-21.8 3.3-2.2 7.5-2.5 11.5-2.7 14.9-.8 32 .2 41.2 11.6 9.3 11.7 5.2 29.5-4.9 40.6-10 11-25.3 18-32 31.1-4 7.9-1 14.5-1.3 24.5-.2 10.4-.7 11.8-2.2 22.2l-9.3-.7ZM2628.7 707c-.5-7.7.3-14.5 1.7-22a33 33 0 0 1 10.9-20c6.4-5.2 15-7 22.6-10.3 7.5-3.3 14.1-8.4 19.3-14.7 3.9-4.7 7-10.2 11.8-14 4.8-3.8 12.4-5.4 17.2-1.6 2 1.8 3.4 4.2 4 6.8 3.2 12.1-6.3 24.4-17.8 30.4-11.4 6-24.6 7.7-36.8 12-12.2 4.4-24.3 12.9-26.5 25.3l-1.6 9-4.8-.9Z" fill="#70C1B1"/><path d="M295.3 807.6c-1.3-17.4-15.7-28-26.8-41-10.4-12.4-27-20.2-31.8-35.8-2.6-8.2 16-19.1 20.7-31.7 5-13.6-3-28-13.6-33.2-19.8-9.6-36.5 7.5-41.1 19-6.6 16.3-.7 43.9 9.3 58.2 17.6 25.1 55.2 32.4 65.2 61.7 3 8.9 3 18.6 2.3 28a285.8 285.8 0 0 1-8.2 51.1l16 2.6s10.3-49.5 8-79Z" fill="#89C58A"/><path d="M251.6 856.6c10.8-13 10.4-33.6 3.5-49.5-7-15.8-31.3-26.9-43-38.9-11.8-12-23.7-24.7-29.8-41-9-24.1-3-52.5 1.8-78.2 4.7-25.6 35-73.9 9-94.3-39.2-30.8-59.4 12.2-75.2 9.3-15.8-3-28-18-55.3-4.3-10 5-15.5 14-15.5 33 0 39.2 59.3 72 77.5 94 15 18.2 34.6 80.7 64.2 101.6 19 13.5 38.3 36.5 37.4 60.8-.2 4.6-1 9.3.5 13.6 3.4 10 15.7 11.1 25.5 10.6l-.6-16.7Z" fill="#7ABF81"/><path d="M-19 410.8c2.2-1.6 2.8-3.3 16.9-5.3C9.2 404 17 415.8 15.8 420.8c1.2-3 9.4-12.4 19-10.2 7.9 1.8 9.3 7.7 11 10.9a17 17 0 0 1 19.5-7.3c8 2.2 9 11.9 8.6 17.1 5.6-5.6 17.6-6.2 24.7 1 5.4 5.5 2.6 19.9 1.2 25a19 19 0 0 1 24.9-7.9c11 5.1 9.7 18.4 11 26.7-45.4-12.6-94-21.9-139.3-34.5-4.4-1.2-5.6-6-8.6-8.5 0 0-11.4-19.2-6.8-22.3Z" fill="#7AC6B9"/><path d="M1981 640.8c5 2 7 8.4 9.2 13.4-.9-11.3-3.5-26.5 6.7-31.3 7-3.2 10.4 2.5 12.6 6.7 2.3 4.4 4.2 8.9 5.8 13.5-1-10-2-31.6 8.6-34.1 5.1-1.3 10 1.8 12.6 6.4 2.8 5 6.7 11.8 7.4 17.4-5.3.7-26.8 10.7-31.6 13-20.5 9.6-25.2 11.6-45.6 24 0 0-4.9-37.1 14.3-29Z" fill="#47AFA2"/><path d="M1963 558.1c5.6.3 11.3-.4 17-.2.5-4 0-8-1.6-11.5-1-2.2-2.8-4.4-5.2-4.6-2.5-.1-4.6 1.9-5.9 4-1.6 2.7-3 10.9-4.3 12.4-1 1-3.9.6-5.3.9-5.5 1.2-10.8 3-16.2 4.3-17.2 3.6-25.2 8.7-41.8 15.2 0 0-.4-21.8 12.2-20.7 1.4 0 7.4 6.1 8.4 10 1-8.1.5-19.7 8.8-22.2 9.1-2.9 13.3 12 13.9 15.4.7-7.2 3.5-16.7 9.3-17.1 6-.5 10.7 14.1 10.7 14.1Z" fill="#5FBA93"/><path d="M1897.7 629.5c4.7-2.7 16.9 8.5 19 13.6-.2-13.1-3-19 5.1-29.3 2.3-2.9 6-6 9.4-4.7 9.7 3.5 15 20.7 17 28.8-21 7.8-37.3 17.3-56.4 31.9 0 0-5.3-33.6 6-40.3ZM2781.5 614c1-1 10-11.1 13.7.2 1.4 4.3 2.5 8.7 3.7 13 2.1-8 3.6-15.8 8.3-22 2.2-2.8 7.6-5.2 10.4-3.4 1.1.8 2 2 2.5 3.2 2 3.9 3.2 8 3.8 12.4.3-7.4 2.9-14.6 7.4-20.5 2-2.5 5-4.8 7.6-3.3 2 1.2 2.8 4.3 3.2 7 1 6.4 4.3 12.4 4.4 18.9a396.9 396.9 0 0 0-74 33.6c-.5-.8 2.4-32.7 9-39.1Z" fill="#8FC8E5"/><path d="M2141.7 867c-15.3-8.6-22.7-26.8-25.5-44.5-7.8-49.5-2.4-107.6 35-142.5 27.8-26 54-45 92-46.2 55-1.5 72 41 86.8 72.5 15 31.4 13.3 70-1 102.6a177.5 177.5 0 0 1-71 78.2c-11.5 7-24.2 13-37.3 12.8-21.2-.3-38.3-16.5-50.3-33.6l-28.7.8Z" fill="#95BFE7"/><path d="M963.9 822.9c-1.6-23.7 10-90 16-112.9 7.6-29.6 50.5-74.7 103.3-57 17.4 5.8 40.3 26.5 43.7 52.4 4.1 32.2-2.2 84.6-1.7 117.4-36.9-3.2-161.3 0-161.3 0Z" fill="#309682"/><path d="M1507.8 470.2c-12.7-2.6-19.3 6.3-22 10.2-1 1.5-2 3.2-2.6 5-2.3 6.7 1.1 15.6 6.4 20.4 1.7-5 11.7-9.5 11.8-10 .7-9.4 6.4-25.6 6.4-25.6Z" fill="#3AA590"/><path d="M-95.3 586.9a74.7 74.7 0 0 1 68.4-.3A95.3 95.3 0 0 1 18.6 639c5.8 15.6 9.3 34.3 23.5 43 8.6 5.2 19.1 5.4 28.7 8.3 29.3 8.8 46 43.4 39.9 73.3-6 29.9-30.6 53.7-59 65-28.4 11.2-60 11.5-90.2 7.6-20.7-2.7-42-7.6-58.4-20.5-30.6-23.8-36.6-67-40.2-105.6L-95.3 587Z" fill="#72A3D8"/><path d="M1642.7 537.8c-2-2.3-4.4-4-7-5.4l.8-.4c3.2-1.6 6.1-6 6.4-8.7.6-6.9-10.3-14.1-27.2-15.2-13.8-.8-22.8 5.4-23.8 10-1.8 8.2 3.4 8.6 8 9.6-.7.2-21 8.7-2.7 21.3 2.9 2 7.8 3 8.2 3.5.5.4 4.2 21 6.5 25.8 4 .7 13.8 4 13.8 4-2.6-8-4.3-16-5.3-24.3 0-1 0-2.3.7-3 .7-.5 1.5-.7 2.3-.7 5-.4 10.7.6 16.8-5.7 2.8-2.9 5-7.4 2.5-10.8Z" fill="#A9D8F5"/><path d="M2036 515.6c3.4 4.4 10.4 4 15.8 3a21.2 21.2 0 0 0 13.1-9c1.7-2.4 2.6-5.2 2.9-8 .1-4.3-1.3-8.4-4.2-11.6a23.9 23.9 0 0 0-10.4-6.7c-4.6-1.5-9.8-2-14.1.1a16.3 16.3 0 0 0-8.6 14.4c-.1 5.9 2 13.2 5.5 17.8Z" fill="#70C1B1"/><path d="M1046 618.5c41.9-38.4 103.6-34.6 151-13.5 32.1 14.3 55.2 44.5 52.4 67.4-45-3-59.3.3-100-25.4-39.6-25-103.4-28.5-103.4-28.5Z" fill="#3EA596"/><path d="M2572.2 824.8c5.6-38.3 17.3-69.4 66.7-67.1a86 86 0 0 0 34.8-3.1c20.2-6.7 24.7-28 64.7-38.3 26.1-6.8 46.8 4.9 64.7.8 15.9-3.6 24.6-24.2 58.7-30.7 43.2-8.1 68.4 12.5 77.1 18.6 20.8 14.5 24.1 38.7 23.6 60.4-.2 8.6-1 17.8-7.2 24.9-7.4 8.4-19.7 37.4-32.2 40.3-119.8 28.2-219.1 16.2-344.2 15l-6.7-20.9Z" fill="#488784"/><path d="M627.3 628.3c.3-4.3 13-34.8 21.6-32 5.3 1.7 6.1 4.9 6 11 1-5.6 9.3-17.5 16.3-16.4 11 1.8 2.4 28.4 2.4 28.4s-17.2 1.8-23 3.3a819.4 819.4 0 0 1-23.3 5.7Z" fill="#309682"/><path d="M673.5 619.3c.4-4.2 9-30 17.8-28.4 7.3 1.3 5.5 10.4 5.3 16.6 1-5.7 9.8-15.3 16.8-14.1 8.4 1.4 5.2 25 5 25.4-.3.6-17-1.5-24.3-1.1-11.8.6-20.6 1.6-20.6 1.6Z" fill="#309682"/><path d="M124.3 448.7c13-7.6 25.6-15.8 38.3-24l11-7c2.8-1.7.2-6-2.5-4.3-12.2 7.6-24.1 15.7-36.4 23.2l-13 7.7c-2.7 1.6-.2 6 2.6 4.3v.1Z" fill="#273476"/><path d="M1212.5 84.3c-3.7-16.5-26.7-27.4-44.2-25a2 2 0 0 0-1.6 1.7l.1 1.2.8.8a114.1 114.1 0 0 1 43 44.2c6.1-11 22.9-23 51.7-33.3.4 0 .7-.3.9-.6.2-.3.4-.6.4-1s0-.7-.2-1a2 2 0 0 0-.7-.9c-14.5-8.2-31.6-4-45.1 7.9l-5.1 6Z" fill="#428ECC"/><path d="M1076 128.4c-2.8-12.8-18.5-20-31.4-18-1.7.2-2.4 2.4-1 3.3 13 9 15.8 11.5 30.4 32.5a51.9 51.9 0 0 1 23.5-19c5.7-2 12-2.7 17.1-5.7a2.4 2.4 0 0 0 1.2-2 2.4 2.4 0 0 0-1.2-2 27.3 27.3 0 0 0-34.6 6.3l-4 4.6Z" fill="#72A3D8"/><path d="M2768.8 102.4c15.7-7.6 14.8-27 39.5-26.2 15.2.6 16.5 15.3 27.3 15 18-.7 15.3-28.7 47.7-28.6 17.5.1 17.8 26.8 29.4 22.5 2.8-1 5.2-3.4 7.6-5.6 12.4-11.2 28.9-16.3 39.7-4.3 3.2 3.6 6.2 16 10.3 18.5 14.2 9.1 18-10.8 35-9 27.2 2.6 5 36.2-5.7 43.9-26.1 18.7-56.5 20.2-87.4 16.6-30.9-3.6-66.7-8-97.7.7a212 212 0 0 1-48.3 5.8c-43.9.6-56.5-31.3-45.6-42.6 25-25.8 36.6-1.2 48.2-6.7Z" fill="#A9D8F5"/><path d="M677 819.7a866 866 0 0 0 .5-83c-.8-16.8-15.4-86-63.1-65.3-15.7 6.8-26 34-29 64.2-3.8 37.6-7.6 72.2-8 110.5 33.6-3.9 66.9-10.8 99.3-20.7l.4-5.7Z" fill="#47AFA2"/><path d="M732.7 804.5a1141 1141 0 0 0 .3-83c-.5-16.8-11.6-86-47.8-65.3-11.9 6.8-19.8 34-22 64.3-2.8 37.5-5.7 72.1-6 110.4a335 335 0 0 0 75.3-20.7l.2-5.7Z" fill="#47AFA2"/><path d="M791.6 816.5c1-27.6 1.2-55.4.3-83-.6-16.8-11.7-86-47.9-65.3-11.8 6.8-19.7 34-22 64.2-2.8 37.6-5.7 72.2-6 110.5a336 336 0 0 0 75.4-20.8l.2-5.6Z" fill="#47AFA2"/><path d="M183.3 816.9c15-12.3-2.2-53.8-13.8-74.1-9.4-16.7-18.4-32.6-37.2-38.3-18.2-5.5-43.2-.8-47.8 11.7-8.1 22.1 5 33.6 24.3 30.3 12.5-2.1 20.1-19.7 31.6-17.8 11 1.9 21.6 23.6 23.7 32.9 3.3 14-6.3 31.9-7.5 38.1-1.7 8.3-3.3 12.1-.8 15.6 4.5 6.4 20 7.8 27.5 1.6Z" fill="#89C58A"/><path d="m95 829.5 54-1.9c12.3-12.5 16.4-30.9 7.3-40.8-6.8-7.5-15.7-12.3-23.9-9.4-4.5 1.6-8.3 12-7.6 15a17.4 17.4 0 0 0-34-3c-.2-1.2-3-14.8-12.9-14.6-7.9.2-13.7 9.3-15 18.9-1.9 12.7 10.6 27.8 32.1 35.8Z" fill="#89C58A"/><path d="M2466.4 514.3c.4-4.3 12.8-30.5 21.3-27.7 5.3 1.7 6.2 4.9 6 11 1-5.7 9.3-17.5 16.3-16.4 11 1.7 2.4 28.4 2.4 28.4s-11.5-1.4-21.4 0c-13 2-24.6 4.7-24.6 4.7Z" fill="#3EA596"/><path d="M476.1 385.3c.6-4.1.4-9.2.7-13.3.3-2.3.3-4.6-.1-6.9-1.6-7-10.8-10.9-17.2-7.4 0 0-8.6 5.2-15.3 1-1.4-1.1-2.9-2-4.5-2.7-2.1-.5-4.3-.5-6.4.1 3 4.9 7.6 9.2 11.5 13 10.4 8 19 17.2 28 25.9.5 0 2.5-3.8 3.3-9.7Z" fill="#F4980C"/><path d="m433.3 356.1-2 1a5 5 0 0 0-1.3 2.4c-1.2 5.3 3.1 9.7 7.5 14.5 4.6 5.2 11.2 13 15.8 18 2.2 2.5 5 6.7 8 8 4.6 2.1 8.8-.7 11.6-5-9-8.7-16.9-18-27.3-26-3.9-3.8-9.3-8-12.3-12.9Z" fill="#F1B73E"/><path d="M659.2 466.4c-.8-5.3-2-6.8-5.4-10.9a19.5 19.5 0 0 0-10-7c-2.3-.5-4.6-.4-6.9.2a31.8 31.8 0 0 0-15.4 7.8s-6.6 8.8-15.4 10.6c-7.9 1.5-8.9 7.5-9 8.2 21.5 1.3 41.6-2.4 62-9Z" fill="#F4980C"/><path d="M597.1 475.3c0 4 1 7 4.6 7.8 7.4 1.6 10.4.8 18.3.3 5.8-.3 19.6-1.4 25.3-1.8 2.2 0 4.3-.4 6.4-1 2.5-1 4.8-2.5 6.6-4.5 1.9-2.3 1.3-7.2.9-9.7a167.8 167.8 0 0 1-62 9Z" fill="#F1B73E"/><path d="M408.4 372.2a250 250 0 0 1 7.3-30.1s3.5-15.9 5.7-23.5c4.6-16 14.7-30.3 20.9-46 3.2-8 6-16.4 8.2-24.8 1.2-4.2 2.4-8.5 3.9-12.6l.2-.5a110.5 110.5 0 0 1 4.5-9.6 81.3 81.3 0 0 1 4.2-6.5l.7-1a122.3 122.3 0 0 1 7.2-8.6c4.8-5.4 10-10.4 15.2-15.6 10.2-10.2 20-21.3 25.7-34.1 1.5-3.4 5.1-10.7 6.7-15.3.6-1.7-7.2-4.1-7.2-4.1l-11.4 20.5a72 72 0 0 1-6.1 9.7c-.1.1-.6.7-.2.3h-.1l-1.8 2.3-3.4 4c-2.3 2.6-8.3 7.3-10.8 9.9-10.2 10.5-26.6 23.3-35 50-2 6-6.2 23.1-11.5 33.8-25.6 51.5-29.4 77.3-32.2 94-.4 2 .5 10.9 3.4 11.3 2.6.3 5.9-3.5 5.9-3.5Z" fill="#5193CF"/><path d="M483 183.7c-1-3.7-1.8-5.5-3.2-10.2l-2.7-9.5 8.5-1.2c2.3 5 4.2 10 5.8 15.1l-8.4 5.8Z" fill="#5193CF"/><path d="M453.3 334c-.6-15.1 13-36 29.6-44.3 14.5-7.2 42.2 2.7 72.7 14.2l48.5 27.3c10 11.5 6.6 10.2 18.5 33 16.7 32 29.2 68.2 26.2 80.8-2.7 11.6-33.8 12.2-43.8 3.1-11.2-10.2-13.9-25.5-35.8-64.6a97.5 97.5 0 0 0-13.6-18.5c-9.7-10.6-24-21.1-38.5-20.3-12.2.8-12.7 9.1-21 19.4-5.2 6.5-12.3 11.5-19.3 7.8-23.5-12.1-23.2-32.5-23.5-37.8Z" fill="#E2504C"/><path d="M598.6 310.2c-13 4.4-68-13.8-68-13.8-7.5 1.5-27.8 6-42-2.8-24.3-15-40.7-40.3-35.5-53.7 3-7.8 12.2-14.8 19.3-12.6 12 3.7 22.6 19.2 36 24 7.5 2.8 16.6-3.7 23-6.8a79.7 79.7 0 0 1 50.3-6.4c9.8 2.2 20.8 6.3 25.7 15 7.2 12.8-8 55.2-8.8 57.1Z" fill="#EC6356"/><path d="M439.5 221.6a14.6 14.6 0 0 1 12.8-7.8c6.9-.2 15 6.6 13 15.2-4.4 18-21.6 12.6-25.8 3.3a12.8 12.8 0 0 1 0-10.7ZM572.8 201.8c-16.6-16-33-1.3-38.7 7-11.7 16.5-1 33.4 13.4 30.6 4.6-.9 13.7-1.8 16.7-2.2 7.7-.7 3.8-6.6 9.4-14.9 2-3.1 4-15.8-.8-20.5Z" fill="#F4D8CB"/><path d="M618.9 213.2c0-13.4-19.3-6.7-31.4-10.8-7.9-2.7-13.3-5.5-21.4-8.6-7.4-2.9-13.1-1.8-12.8 2.1l3.6 37.4c.2 2.9.4 4.5 1.4 4.5l9.4.1c3.6 0 11.9.6 15 0 14.6-2.3 36.2-17.7 36.2-24.7Z" fill="#D74949"/><path d="m519.6 198.4 12.2 21.8 8.7-17.1-21-4.7Z" fill="#F4D8CB"/><path d="m545 292.5-14.4 3.9s20.6 21.6 45.3 22.2l-2.6-15.3c-16.2-.1-28.2-10.8-28.2-10.8ZM580.6 258.5a31.7 31.7 0 0 0-23.4-20.8 43.9 43.9 0 0 0-14.5 2.3s13.6 4.8 19.2 13.6c2.6 3.8 4.4 8.2 5.2 12.8 3.6-4 7.7-5.6 13.5-7.9Z" fill="#F4980C"/><path d="M628.2 278.3c3.1-1.6 6.3-3 9.6-4.2-2.9-12.7-10.4-23.7-21.6-25.3-8-1.2-29.4 7.2-34.5 9.2h.3-.3l-1.1.5s-11 3.5-13.5 7.9l.2 1.1c.8 5.1 4.4 20.6 6.3 35.8h-.3l2.6 15.3h.2c2.8 11.9 4.4 16.3 9.4 20.2 7.1 5.6 10 4.7 19.4 5.3 18 1 31.7-13 30-30-1.5-13-3.9-26.5-6.7-35.8Z" fill="#F1B73E"/><path d="M602 289.4c.8 4.7 1 6.5 1.9 10.8a4.7 4.7 0 0 0 4 3c3.3 0 3.4-2.5 3.6-3.6.4-2.2-1.2-8.8-2.3-13.3 0-.3-.1-.6-.3-.8a37.6 37.6 0 0 0-6.6 3c-.2.3-.3.6-.2 1ZM624.6 292.3a4.4 4.4 0 0 0 4.3 2.7c2 0 2.3-3 2.3-3 .1-4.8-1.1-8-2.3-12.5l-.5-1.1c-1.8.6-3.5 1.3-5.1 2.3-.5.3-1 .6-.8 1.2.6 3 1.1 7.3 2 10.4Z" fill="#EC6356"/><path d="m606.8 249.7-10.2 2.9c-1.2-3-3-5.8-5.4-8-4.6-4-6.3-5.5-11.9-6.5 0 0 10-.5 14.5 0a15.6 15.6 0 0 1 13 11.6Z" fill="#F4980C"/><path d="M459.1 361.6a58 58 0 0 0 6.5 6.3l7 5.9a2.6 2.6 0 0 0 3.6 0 2.5 2.5 0 0 0 0-3.6c-2.4-1.9-4.8-3.8-7-5.8-2.4-2-4.6-4-6.6-6.3a2.5 2.5 0 0 0-3.5 0 2.6 2.6 0 0 0 0 3.5ZM626.4 456.5c6.8.3 13.5-1.2 19.5-4.2a2.5 2.5 0 1 0-2.5-4.4 34.4 34.4 0 0 1-17 3.6 2.5 2.5 0 1 0 0 5ZM543.2 204.5c.1 0 .5.3.1 0-.3-.2 0 0 0 0l.5.5.4.5c.2.2 0 0 0-.2l.1.3.7 1 .1.4c.1.3 0-.1 0-.2l.1.6c.2.4.3.9.3 1.3v-.3 2c0 .4.1-.5 0-.2 0 .4-.1.9-.3 1.3a2.5 2.5 0 0 0 1.8 3 2.6 2.6 0 0 0 3-1.7 11.3 11.3 0 0 0-4.3-12.6 2.5 2.5 0 0 0-3.4.9 2.6 2.6 0 0 0 .9 3.4ZM541.7 209l.2-.5c.2-.2.3-.6.3-.9v-1c-.1-.3-.2-.6-.5-.8-.1-.3-.4-.5-.7-.7l-.6-.2c-.4-.2-.9-.2-1.3 0l-.6.2c-.4.2-.7.5-.9 1l-.2.4c-.2.2-.3.6-.3.9a2.2 2.2 0 0 0 .5 1.8c.1.3.4.5.7.7l.6.2c.4.2.9.2 1.3 0l.6-.2c.4-.2.7-.5.9-1v.1Z" fill="#273476"/><path d="M605.5 202.6c10.8 4 21.6 8 32.3 12.2a2.5 2.5 0 0 0 3-1.8 2.6 2.6 0 0 0-1.7-3c-10.7-4.3-21.5-8.2-32.2-12.3a2.5 2.5 0 0 0-3.1 1.8 2.6 2.6 0 0 0 1.7 3Z" fill="#B7DBEE"/><path d="M617.8 223.2c3.7-11.4 8-22.5 12.5-33.6a2.5 2.5 0 0 0-1.8-3 2.6 2.6 0 0 0-3 1.7 513.9 513.9 0 0 0-12.5 33.6c-1 3 3.9 4.4 4.8 1.3Z" fill="#B7DBEE"/><path d="M612.2 192.2c3 4.7 5.5 9.5 7.8 14.6 2.2 5 4 10 5.9 15.2a2.6 2.6 0 0 0 3 1.7 2.5 2.5 0 0 0 1.8-3 163 163 0 0 0-14.2-31c-1.7-2.7-6-.2-4.3 2.5Z" fill="#B7DBEE"/><path d="M607.7 215a112.6 112.6 0 0 0 30.4-14.8c2.7-1.7.2-6-2.6-4.3-4.6 2.9-9.3 5.8-14.2 8.2-4.8 2.4-9.8 4.4-14.9 6-3 1-1.7 5.9 1.3 4.9Z" fill="#B7DBEE"/><path d="M2226.5 606.3c0 1.8 1 28.6 0 28.8-1.5.3-5.7 1.3-11 2.9-2.5.8-6.8 3.2-7.2 1.9-.5-1.6 0-9.2 0-11 .1-29 1-57.9 2-86.8.2-3.2 1.3-4.5 3-6.5 1-1.1 5.9-7.4 7.7-8.3 3.7-1.7 4.7 1.6 5 3.8.8 7.3.4 70.6.5 75.2Z" fill="#407070"/><path d="M2278.7 495.4c-4.5-8.8-30.2-13-52.8-14.1-15.2-.9-18.3 3.8-18.7 10.7-1 13.6 18.5 11 29.1 11.8-2.9 1-43 20.3-51 23.4-11.6 4.6-17.1 7-15.1 14 2.6 9 8.7 17.8 13.9 15.9 10-3.6 60.6-31.6 66.7-33.8-1.9 4-19.4 24-8.8 30 13.5 7.5 20.4-10.9 30.8-27.6 9.8-15.9 8.2-25.9 6-30.3Z" fill="#D74949"/><path d="m2213.7 547.3 12.7-6.6a2.5 2.5 0 0 0 .9-3.4 2.6 2.6 0 0 0-3.5-1l-12.6 6.7a2.5 2.5 0 0 0-.9 3.4 2.6 2.6 0 0 0 3.4 1v-.1ZM580.9 272.3c4.6 4 7.3 9.5 8.9 15.3l1.2 5.6c.3 2 1.3 3.5 3.4 3l8-3 14.1-5.6c4.1-1.6 8.2-3.1 12.2-4.9a2.5 2.5 0 0 0 .9-3.4 2.6 2.6 0 0 0-3.5-.9l-.4.2c-.4.2.7-.3 0 0l-1.2.5-3 1.2-8.3 3.3-16.4 6.3-2.7 1-.7.3c-.4.2-.6 0 .3 0l1.3.3c-.3 0 1.2 1 1 1.3l-.1-.2-.1-.6-.4-1.9c-.4-2-.9-4.2-1.5-6.2-1.8-5.8-5-11-9.5-15.1a2.6 2.6 0 0 0-3.5 0 2.5 2.5 0 0 0 0 3.5ZM553 195.4l3.6 40.2a2.6 2.6 0 0 0 2.5 2.5 2.5 2.5 0 0 0 2.5-2.5l-3.7-40.2a2.6 2.6 0 0 0-2.5-2.5 2.5 2.5 0 0 0-2.5 2.5Z" fill="#273476"/></g><defs><clipPath id="a"><path fill="#fff" d="M0 0h2880v800H0z"/></clipPath></defs></svg>