<svg width="504" height="56" viewBox="0 0 504 56" fill="none" xmlns="http://www.w3.org/2000/svg"><path d="M11.4 16.12a4 4 0 0 1 4-4l28.1-.07a4 4 0 0 1 4.02 4.08l-.46 23.6a4 4 0 0 1-3.9 3.93l-27.65.73a4 4 0 0 1-4.1-4V16.12Z" fill="#B8DDF0"/><path d="M30.23 35.07C34.63 29.71 40 21.42 40 21.42s-4.32-1.45-4.83-1.42c-6.84.43-14.38 4.29-16.17 12.15 0 0 3.9 5.85 5.86 5.85 1.95 0 5.37-2.93 5.37-2.93Z" fill="#fff"/><path d="M15.95 10.85c-1.25 0-2.5.05-3.75.05-1 0-2.1.15-3.1.1-1.1-.05-1.55-.75-.5-1.5 1.85-1.3 1.4 2.6 1.4 3.65.05 1.75.05 3.55.15 5.3.05 1.6 2.55 1.6 2.5 0l-.15-5.65c-.05-1.35.25-3.25-.4-4.5-1-1.9-3.55-2.1-5.1-.75-1.6 1.35-2.35 4.15-.3 5.4 1.35.8 3.15.5 4.6.45 1.55-.05 3.05-.05 4.6-.05 1.65 0 1.65-2.5.05-2.5ZM41 13.1c3.05 0 6.45.05 9.45-.75 2.15-.6 3.2-3.1 1.7-4.95a3.48 3.48 0 0 0-5.55.35c-.9 1.4-.7 3.1-.7 4.65 0 1.85-.05 3.7-.05 5.55 0 1.6 2.5 1.6 2.5 0V13.1c0-.85-.2-1.95 0-2.75.05-1.25.5-1.85 1.4-1.65.65.65.7 1.05.15 1.15-.6.7-3.4.5-4.25.6-1.55.1-3.15.15-4.7.15-1.55 0-1.55 2.5.05 2.5ZM12.35 26.05v-.15h-2.5v6.8h2.5v-1.35h-2.5v1.15c0 1.6 2.5 1.6 2.5 0v-1.15c0-1.6-2.5-1.6-2.5 0v1.35c0 1.6 2.5 1.6 2.5 0v-6.8c0-1.6-2.5-1.6-2.5 0v.15c0 1.6 2.5 1.6 2.5 0ZM25.2 13.63c2.1-.1 4.2-.15 6.3-.1 1.6.05 1.6-2.45 0-2.5-2.1-.05-4.2-.05-6.3.1-1.6.1-1.6 2.6 0 2.5ZM45.9 25.15v6.6h2.5v-2.6c0-1.6-2.5-1.6-2.5 0v2.6c0 1.6 2.5 1.6 2.5 0v-6.6c0-1.6-2.5-1.6-2.5 0ZM9.8 40.15c.05.85.05 1.7.1 2.6.05 1 .45 3.35-.05 4.25-.8 1.35-2-.6-1-1.25.45-.3 1.65-.05 2.25-.05 1.6.05 3.2 0 4.8-.05 1.6-.05 1.6-2.55 0-2.5-1.85.05-3.65 0-5.45 0-1.15 0-2.35 0-3.35.7-1.9 1.35-1.4 4.1.25 5.4 1.75 1.4 4.2.9 4.9-1.35.75-2.4.25-5.3.15-7.8-.15-1.55-2.65-1.55-2.6.05ZM24.75 45.45c2.65-.1 5.25-.05 7.9-.15 1.6-.05 1.6-2.55 0-2.5-2.6.1-5.25.05-7.9.15-1.6.05-1.6 2.55 0 2.5ZM45.8 39.65c0 1.35.15 2.6 0 3.9-.15 1.4-.15 2.55.65 3.75 1.2 1.75 3.5 2.7 5 .85 1.25-1.5 1.2-4-.45-5.15-1.25-.9-2.7-.7-4.15-.6-1.65.1-3.3.1-4.95.1-1.6 0-1.6 2.5 0 2.5 1.55 0 3.1 0 4.7-.1.65-.05 1.5-.25 2.15-.1.6.1 1.6.9.9 1.65-.35.35-.55.15-.95-.3-.65-.75-.5-1.65-.4-2.55.15-1.35.05-2.65 0-4-.05-1.55-2.55-1.55-2.5.05ZM35.32 19.2c-1.55-1.95-4.82-1-6.74-.23-3.23 1.34-5.66 3.88-7.53 6.84-1.83 2.97-3 6.56-1.03 9.77 1.59 2.63 4.63 2.92 7.25 1.82 3.28-1.34 5.85-4.46 7.95-7.23a39.66 39.66 0 0 0 3.04-4.83c.75-1.44 1.78-3.12 1.74-4.8-.05-2.72-2.39-3.2-4.21-1.71-2.2 1.82-3.84 4.69-5.06 7.22-1.68 3.5-2.48 6.85.66 9.67 3.32 3.02 6.22 1.34 9.21-1.24 1.17-1-.51-2.68-1.63-1.68-1.36 1.15-2.86 2.78-4.73 2.01a4.2 4.2 0 0 1-2.67-4.3c.33-2.45 2.11-5.08 3.42-7.09.51-.77 1.03-1.48 1.64-2.1 1.63-1.68.84.23.32 1.38a32.7 32.7 0 0 1-4.4 7.13c-1.68 2.06-3.64 4.36-6.17 5.41-4.12 1.68-6.03-2.68-4.44-6.17a16.76 16.76 0 0 1 5.47-6.8c1.12-.76 5.05-2.87 6.22-1.39.94 1.2 2.62-.47 1.69-1.67Z" fill="#1E2882"/><path d="M62.56 25.68c4.16-6.45 8.7-10.56 13.66-16.36 1.02-1.17 3.36-3.88 4.72-4.58a6.8 6.8 0 0 1 5.56-.28c1.87.65 4.44 3.27 6.13 4.9 4.25 4.17 6.03 6.18 9.72 10 1.5 1.55 3.32 3.28 4.02 5.05.52 1.4.42 1.83.52 3.32.23 3.93.04 8.23-.05 12.15a11 11 0 0 1-.84 4.3c-.98 1.87-2.15 2.39-4.16 2.9-3.84.93-8.32.84-12.25.89-3.6.04-7.58.1-11.18 0-2.7-.1-5.37-.14-8.08-.19-1.69-.05-4.54-.33-5.8-1.45-1.17-1.03-1.26-1.5-1.6-3.08-.65-3.09-.5-7.48-.65-10.66-.09-2.1-.32-4.9.19-6.82" fill="#FFD15A"/><path d="M70.89 32.83c-.9-2.9-.94-6.08-.14-9.02.32-1.26.84-2.43 1.59-3.5.98-1.4 2.29-2.44 3.6-3.42a19.35 19.35 0 0 1 3.92-2.24 12.7 12.7 0 0 1 10.8.7c3.32 1.82 5.9 5.1 7.11 8.88.6 1.96.84 4.2-.1 5.98-.88 1.73-2.66 2.66-4.3 3.55-2.9 1.5-5.8 3-8.74 4.49-.65.32-1.4.7-2.15.7-.7 0-1.35-.38-1.96-.7-1.83-.94-3.65-1.92-5.47-2.85-1.92-.98-3.88-2.06-5.1-3.98" fill="#fff"/><path d="M62.38 27.97c2.8 2.38 5.8 4.48 8.7 6.73 1.2.93 2.33-1.13 1.16-2.01-2.76-2.1-5.6-4.12-8.23-6.36-1.12-.98-2.76.66-1.63 1.64ZM74.49 36.47c1.91 1.22 3.88 2.34 5.89 3.46.98.51 1.63 1.03 2.7.65 1.46-.51 2.9-1.58 4.26-2.33 1.83-1.03 3.65-2.1 5.43-3.23 1.26-.8.1-2.85-1.17-2-2.9 1.86-6.08 3.31-8.93 5.18-.1.05-.56.23-.61.33-.05.28.6.18.56 0 0-.19-1.59-.84-1.73-.94a118 118 0 0 1-5.24-3.08c-1.26-.89-2.43 1.17-1.16 1.96ZM97.96 32.45c2.85-1.87 5.65-3.83 8.32-5.98 1.17-.93-.47-2.57-1.64-1.63-2.52 2-5.14 3.87-7.85 5.6-1.26.84-.1 2.85 1.17 2.01Z" fill="#1E2882"/><path d="M72.94 33.1c-2.99-6.54 1.83-15.79 8.89-17 4.11-.7 8.46.84 11.26 3.88 2.95 3.17 3.32 6.91 3.18 11.07-.04 1.5 2.3 1.5 2.34 0 .14-4.9-.56-9.25-4.07-12.9a15.08 15.08 0 0 0-13.37-4.3c-8.6 1.64-13.88 12.62-10.24 20.47.61 1.36 2.62.14 2.01-1.21Z" fill="#1E2882"/><path d="M78.93 21.7c.04.1.1.14.14.24.28.51 1.07.75 1.59.42.56-.33.75-1.03.42-1.59-.05-.1-.1-.14-.14-.23-.28-.52-1.08-.75-1.6-.42a1.15 1.15 0 0 0-.41 1.58ZM86.17 20.63c0-.1.05-.23.1-.33-.14.28-.19.56-.14.89.1.28.28.56.51.7.52.28 1.36.19 1.6-.42.13-.33.18-.51.23-.89.04-.6-.57-1.21-1.17-1.17-.61.05-1.08.57-1.13 1.22ZM78.04 28.43c4.11 3.04 9.44 2.95 13.14-.7 1.07-1.07-.56-2.7-1.64-1.63-3 2.94-7.06 2.75-10.29.32-1.21-.88-2.38 1.13-1.21 2.01Z" fill="#1E2882"/><path d="M129.08 6.83c-.15.92-.15 1.29-.33 2.2-.24 1.3-.52 2.63-1.41 3.55-1.17 1.29-3 1.56-4.74 1.8l-1.27.13c2.02-.1 2.91.18 4.37 1.65a7.9 7.9 0 0 1 1.5 2.67c.6 1.75.47 2.62.7 4.46-.1-1.56.99-6.07 1.7-6.9 1.12-1.38 2.2-1.79 3.98-1.88-.89-.18-.89-.18-1.78-.41-.56-.14-1.18-.28-1.6-.7-.47-.45-.6-1.19-.7-1.88a37.81 37.81 0 0 1-.42-4.69Z" fill="#FFD15A"/><path d="M128.18 6.83c-.23 1.84-.28 4-1.73 5.33-1.36 1.25-3.34 1.34-5.07 1.52-1.08.14-1.18 1.75 0 1.75 4.64-.14 5.3 4.37 5.68 7.9.1 1.1 1.78 1.15 1.78 0 0-3.26.85-7.63 4.79-7.9.94-.05 1.27-1.47.23-1.7-1.92-.46-3.24-.65-3.52-2.9a38.08 38.08 0 0 1-.33-4.04c-.14-1.06-1.87-1.06-1.83.04.1 1.98-.04 4.6.85 6.44.8 1.65 2.72 1.8 4.32 2.16.1-.55.14-1.15.23-1.7-5.12.37-6.57 5.2-6.57 9.6h1.78c-.47-4.6-1.69-9.79-7.41-9.65v1.75c2.2-.28 4.7-.37 6.38-1.98 1.78-1.7 1.93-4.36 2.2-6.62.15-1.1-1.64-1.1-1.78 0ZM155.64 25.45c.15 1.38-.84 3.77-1.78 4.78-.94 1.01-2.16.92-3.43 1.42 1.32.46 2.63.46 3.57 1.34.56.5.75 1.33.9 2.06.18 1.15.28 2.35.23 3.54.28-.87.51-1.7.8-2.57.28-.97.65-2.02 1.4-2.67 1.08-.92 2.12-1.24 3.85-1.28-1.73-.7-3.1-.83-4.27-1.89-.66-.6-1.45-3.26-1.27-4.09" fill="#FFD15A"/><path d="M154.75 25.45c0 1.15-.37 2.53-1.03 3.5-.84 1.23-2.16 1.42-3.52 1.88-.8.27-.84 1.42 0 1.65 1.27.37 2.72.46 3.43 1.66.75 1.28.6 3.03.56 4.45 0 1.02 1.46 1.15 1.74.23.94-3.03 1.45-5.7 5.2-5.88 1.04-.05 1.18-1.33.24-1.7-1.4-.5-3.24-.78-4.13-2.07a5.47 5.47 0 0 1-.75-3.08c.1-1.1-1.64-1.1-1.78 0a6.96 6.96 0 0 0 1.17 4.28c1.13 1.51 3.28 1.88 4.97 2.52.1-.55.15-1.14.24-1.7-1.64.1-3.24.42-4.46 1.52-1.5 1.38-1.88 3.77-2.44 5.6.56.1 1.17.15 1.74.24.04-1.75.09-4.18-.94-5.7-.99-1.43-2.77-1.61-4.37-2.07v1.65c1.7-.55 3.2-.68 4.27-2.2a8.5 8.5 0 0 0 1.6-4.83c0-1.05-1.74-1.05-1.74.05ZM136.68 33.72c-.42-1.65 2.3-4.6 3.05-5.97.94-1.7 1.5-4.19 2.87-5.56l-1.98-1.1c-.65 2.1-1.83 4.13-2.77 6.15-.37.83-.8 1.61-1.17 2.44-.42.87-.84 2.53-1.55 3.17h1.64c0-.05-.04-.05-.04-.1v1.62l.04-.05c.94-1.15-.7-2.76-1.64-1.6l-.05.04c-.42.5-.42 1.1 0 1.6 0 .05.05.05.05.1.42.5 1.22.41 1.64 0 1.46-1.34 2.26-4.32 3.15-6.07 1.08-2.2 2.35-4.37 3.05-6.71.33-1.1-1.17-1.93-1.97-1.1-1.88 1.97-2.63 5.1-4.04 7.44-1.17 1.98-3.1 3.86-2.49 6.35.33 1.37 2.59.78 2.21-.65ZM151.28 44.94c1.5 0 1.5-2.3 0-2.3s-1.55 2.3 0 2.3ZM120.81 30.6h.05c.61 0 1.22-.5 1.17-1.15-.04-.65-.51-1.15-1.17-1.15h-.05c-.6 0-1.22.5-1.17 1.15.05.6.52 1.15 1.17 1.15ZM144.14 9c1.5 0 1.5-2.3 0-2.3s-1.5 2.3 0 2.3Z" fill="#FFD15A"/><path d="M126.73 29.82c1.5-3.45 3.14-6.8 4.93-10.12.94-1.74 5.3-10.8 7.84-6.94 1.92 2.94-1.18 8.64-2.4 11.26-1.55 3.27-3.33 6.44-4.93 9.66-1.5 3.08-3 6.1-4.88 9-.94 1.48-3.61 6.07-5.58 3.04-.94-1.47 0-3.86.51-5.33.8-2.16 1.64-4.32 2.54-6.44.56-1.38-1.7-1.97-2.26-.6-1.4 3.4-4.22 8.42-3.33 12.28a4.42 4.42 0 0 0 4 3.35c2.39.23 3.93-1.79 5.15-3.58 4.09-6.07 7.14-12.87 10.38-19.4 1.78-3.63 7.42-15.81-.7-16.36-3.71-.28-5.73 4.27-7.23 6.9-2.3 3.94-4.28 8.04-6.1 12.22-.57 1.24 1.45 2.43 2.06 1.06Z" fill="#1E2882"/><path d="M126.21 40.43c3.76-7.9 7.94-15.63 11.55-23.58.61-1.33-1.4-2.52-2.02-1.15-3.61 7.96-7.8 15.68-11.55 23.58-.6 1.34 1.41 2.49 2.02 1.15ZM142.55 27.7c1.92-3.95 3.7-8 5.58-11.95.24-.55 1.18-3.36 1.84-2.67.46.46-.57 2.95-.71 3.54-.42 1.57-.94 3.13-1.4 4.7-.34 1.05 1.17 1.97 1.96 1.1 1.83-1.98 3.76-3.91 5.73-5.8.7-.64 1.64-1.84 2.49-2.25 1.64-.78.89.37.47 1.06-1.97 3.12-4.74 5.84-7.42 8.36-1.08 1.02.56 2.67 1.64 1.61a67.7 67.7 0 0 0 5.87-6.2c1.08-1.29 3.29-3.5 2.87-5.38-.52-2.25-3.2-2.53-4.75-1.29-3.1 2.48-5.86 5.43-8.54 8.28l1.97 1.1 1.83-6.16c.33-1.2.9-2.57.33-3.81-.8-1.7-3.8-1.52-4.79-.14-1.26 1.74-2.02 4.18-2.9 6.16-1.32 2.85-2.63 5.74-4.04 8.6-.7 1.32 1.31 2.47 1.97 1.14ZM138.09 30.83 132.3 42.9c-.98 2.07-1.83 5.34 1.65 5.47 2.95.1 4.6-3.53 5.77-5.6 2.3-4.1 4.41-8.28 6.8-12.32-.7-.28-1.4-.6-2.15-.87a87.48 87.48 0 0 0-1.7 12.54c-.13 1.84-.56 7.17 2.78 6.8 2.77-.32 3.61-5.46 3.94-7.49.75-4.4 1.36-8.82 1.88-13.28.19-1.47-2.16-1.47-2.35 0-.37 2.99-.94 5.98-1.31 8.96-.33 2.58-.28 6.35-1.93 8.5-.51.74-.47.7-.65-.31-.14-.79-.1-1.66-.05-2.44.05-1.24.23-2.44.37-3.68.38-3.03.57-6.11 1.27-9.1.28-1.24-1.45-2.07-2.16-.87-1.55 2.66-3 5.42-4.5 8.13-1.32 2.44-2.5 5.29-4.28 7.45-.28.32-.84 1.06-1.26 1.1-1.18.1-.47-1.2-.24-1.65.57-1.15 1.03-2.3 1.55-3.45 1.36-2.99 2.91-5.88 4.32-8.87.7-1.24-1.31-2.44-1.97-1.1Z" fill="#1E2882"/><path d="M199.57 30.26c-1.71.85-2.57 3.18-2.76 5.36-.1.95-.1 1.9.14 2.8.2.71.53 1.33.9 1.9 1.48 2.08 3.8 3.18 6.04 2.84 2.23-.33 4.28-2.13 5.27-4.55.48-1.14.67-2.42.48-3.66a5.56 5.56 0 0 0-2.1-3.41c-1.04-.76-2.27-1.62-3.46-1.8a5.43 5.43 0 0 0-4.47 1.32" fill="#B8DDF0"/><path d="M198.95 29.21c-3.18 2-4.28 7.17-2.8 10.49 1.75 3.94 6.55 5.98 10.4 3.75 3.51-2.04 5.6-7.03 3.51-10.77-2.18-3.94-7.4-5.46-11.06-2.66-1.2.9 0 2.99 1.18 2.04 2.47-1.9 5.9-1.14 7.65 1.52 1.71 2.6 0 6.36-2.52 7.78-5.93 3.47-10.3-6.88-5.17-10.06 1.28-.8.1-2.9-1.2-2.09ZM175.05 27.98c-.71.9-.8 2.23-.9 3.46-.05 1.1-.14 2.23.14 3.28.57 2.18 2.47 3.56 4.37 4.03.95.24 1.95.33 2.85 0 1.62-.57 2.8-2.32 3-4.22a6.57 6.57 0 0 0-2.57-5.94 6.49 6.49 0 0 0-5.8-.8c-.33.1-.66.23-.85.52" fill="#B8DDF0"/><path d="M174 27.36c-1.75 2.85-1.7 7.88.67 10.4 2.38 2.46 6.8 3.41 9.31.66 5.42-5.89-3.04-16.14-9.54-11.01-1.2.95.47 2.6 1.66 1.66 1.7-1.33 4.75-.29 5.94 1.19 1.52 1.8 1.9 4.93.04 6.69-1.85 1.75-5.22.28-6.31-1.66-.96-1.71-.77-5.08.28-6.74.8-1.28-1.24-2.47-2.04-1.19Z" fill="#B8DDF0"/><path d="M192.2 29.78c3.04 0 3.04-4.75 0-4.75-3.08 0-3.08 4.75 0 4.75Z" fill="#FFB69B"/><path fill-rule="evenodd" clip-rule="evenodd" d="M189.64 11.84c2.8-2.66 8.22-7.02 12.02-3.56 1.14 1.05-.53 2.7-1.67 1.66-2.47-2.29-6.93 1.9-8.61 3.49l-.08.07c-1.1 1.05-2.76-.61-1.66-1.66Zm-5.94 5.03c-1.1.96-2.33 1.89-3.6 2.82-2.92 2.17-5.97 4.43-7.56 7.48-.12.23-.23.47-.33.7l-.15.3c-.08.16-.12.32-.13.48-1.13 3.63.07 7.63 2.36 10.67.9 1.19 3 0 2.05-1.19-2.23-2.91-3.22-6.48-1.76-9.59 1.83-2.54 5.72-3.05 7.84-.37 1.9 2.37 2.75 6.17 1.33 8.97-.67 1.33 1.38 2.51 2.09 1.18 1.23-2.35 1.3-5.44.41-8.15.19-.1.35-.23.49-.44.55-.8.92-1.67 1.3-2.53.3-.72.62-1.43 1.03-2.12 1.09-1.85 3.6-1.9 5.32-.85 1.08.63 1.68 1.64 2.28 2.65.33.55.66 1.1 1.07 1.6a317.91 317.91 0 0 0-.74 1.3c-2.6 3.54-2.61 9.03-.14 12.62.85 1.24 2.9.05 2.04-1.18-2.09-3.04-2.09-7.97.57-10.68.09-.08.15-.17.2-.26 3.32-3.27 8.9.76 9.83 4.39 1.13 4.18-2.38 9.11-6.94 8.4-1.47-.2-2.14 2.09-.62 2.32 4.86.77 9.05-2.76 9.99-7.2l.08-.2c1.67-4.7 3-9.49 4.33-14.28.15-.58.33-1.15.5-1.72.4-1.31.78-2.62 1.02-3.98.33-2.13.47-4.6-.9-6.4-1.86-2.43-5.23-2.14-7.94-1.57-1.47.33-.86 2.6.62 2.28 2.23-.48 5.27-.81 5.94 1.94.42 1.84-.14 3.95-.61 5.75l-.01.04-.15.53c-1.12 4.01-2.24 8.04-3.5 12.02-1-2.29-2.87-4.31-5.24-5.1-1.51-.51-3.2-.76-4.76-.51l.94-1.63.12-.04c2.42-.95 4.51-.43 6.5 1.19 1.2.95 2.86-.72 1.67-1.66-2.01-1.61-4.22-2.54-6.62-2.33 1.17-1.98 2.34-3.96 3.53-5.93.81-1.33-1.28-2.52-2.04-1.19a696.17 696.17 0 0 0-6.45 10.93c-.21-.33-.4-.7-.6-1.05-.27-.52-.53-1.02-.84-1.38a7.11 7.11 0 0 0-4.65-2.54l1.92-1.8c1.53-1.45 3.07-2.9 4.68-4.25 1.19-1-.52-2.66-1.66-1.67a97.6 97.6 0 0 0-5 4.51c-1.42 1.35-2.85 2.7-4.36 3.99-.14.1-.24.23-.3.35-.16.14-.31.3-.46.46-.77.9-1.24 2-1.71 3.13-.25.59-.5 1.18-.8 1.74a9.08 9.08 0 0 0-2.1-2.4 6.57 6.57 0 0 0-4.44-1.43c.68-.57 1.37-1.12 2.06-1.66l.24.05c-.1 0-.03.01.08.03l.26.06.42.14c.43.2.86.48 1.24.76.52.38 1.33.1 1.61-.42.34-.57.1-1.28-.42-1.62-.4-.27-.8-.52-1.22-.73.83-.66 1.66-1.32 2.45-2.02 1.19-1.04-.52-2.7-1.66-1.7Z" fill="#1E2882"/><path fill-rule="evenodd" clip-rule="evenodd" d="M242.2 14.6c.72-1.32-1.17-2.5-1.91-1.24a1 1 0 0 1 1.27-.47 14.49 14.49 0 0 1 18.1-5.68c6.06 2.67 9.9 8.91 10.3 15.78.37 6.67-2.3 14.2-9.21 15.35 2.19-.89.6-8.5-.52-12.08-.23-3.8-.68-6.43-4.3-10.25 0-.68.5-1.58 1-2.5.9-1.66 1.87-3.4.13-4.17-8.17-.32-12.2 4.8-14.1 7.23-.93 1.2-1.35 1.74-1.5.63l.74-2.6Zm14.4 13.33-3.16-3.82-3.16 4.77-1.81 3.82 2.71 4.29h3.62l1.36-4.77.45-4.3Z" fill="#B8DDF0"/><path fill-rule="evenodd" clip-rule="evenodd" d="M236.35 28.85c.03-1.2.05-2.43.06-3.67.05-4.03.1-8.15.75-12.01.19-1 .96-3.91 2.45-3.39.9.3.81 1.56.75 2.52l-.03.4-.03 2.38a87.4 87.4 0 0 1-.05 3.79 50.9 50.9 0 0 0-2.72 9.5c-.32 1.48 1.85 2.1 2.17.62.68-3.29 1.4-6.48 2.76-9.53.16-.35.15-.69.05-.97.04-1.48.04-3 .04-4.46l.03-1.24c.05-1 .1-2.02-.12-2.96-.6-2.43-3.3-3.15-5.16-1.76-2.31 1.74-2.55 5.16-2.75 7.99l-.05.78c-.24 3-.32 6.02-.4 9.03l-.1 3.03c.04 1.48 2.3 1.48 2.35-.05ZM254.78 10c-2.97.87-5.9 2.83-8.18 4.8-1.1.96-2.74-.69-1.6-1.6a28.9 28.9 0 0 1 7.08-4.57l.07-.03c1.59-.72 3.7-1.7 5.46-.79 3.62 1.84 1 5.61-1.59 7.74 2.75.87 4.2 3.7 4.93 6.54.42 1.64.56 3.7-.2 5.1.9.5 1.59 1.37 1.87 2.48.55 2.05.19 4.08-.16 6.08a32.32 32.32 0 0 0-.51 4.47c-.11 2.25-.22 4.33-1.9 6.18-4.2 4.68-10.31 4.3-15.38 1.77-1.31-.67-.18-2.72 1.13-2.05 3.44 1.71 6.65 2.29 10.18.43a7.6 7.6 0 0 0 3.03-2.67c.69-1.25.68-2.67.68-4.06 0-.53 0-1.06.04-1.57.06-.7.24-1.52.43-2.39.42-1.87.88-3.95.2-5.52-1.44-3.39-3.2.67-3.39 2.1-.07.38-.1.78-.15 1.19-.07.69-.15 1.39-.35 2.05-1.3 4.29-6.28 3.95-8.05.19a7.9 7.9 0 0 1-.36-6.25c.3-.77.74-1.33 1.21-1.93a11.28 11.28 0 0 0 2.54-5.26c.14-.75.72-.98 1.26-.86.23.02.44.12.6.32.23.2.39.49.41.83.58 1.25 1.64 3.08 2.9 3.33 3.56.71 1.62-4.39 1.03-5.63-2.49-5.2-7.28-1.95-10.17.77-1.09 1-2.67-.67-1.59-1.63 1.77-1.63 3.75-3.36 6-4.02a.94.94 0 0 1 .56-.6c1.51-.69 3.3-1.83 3.93-3.48.64-1.6-.59-1.87-1.96-1.46Zm-1.57 15.74c.78 1.06 1.75 2 2.87 2.54a8.63 8.63 0 0 0-1.28 3.63c-.05.3-.07.66-.1 1.05-.06 1.1-.14 2.43-.85 3.1-1.13 1.05-2.67-.1-3.25-1.1a5.26 5.26 0 0 1-.46-3.95c.26-.97.84-1.75 1.43-2.54a14.01 14.01 0 0 0 1.64-2.73Zm-10.62 6.65c.4-2.81 1.27-5.39 2.58-7.82.72-1.33-1.22-2.53-1.94-1.2a24.09 24.09 0 0 0-2.8 8.4c-.24 1.48 1.94 2.14 2.16.62Zm-8.12 3.66-.1-.37c-.46-1.48 1.75-2.1 2.16-.62l.17.57c.44 1.54.89 3.13 1.73 4.48 1 1.48 2.22 2.53 3.57 3.62 1.18.91.05 2.96-1.13 2.05a16.64 16.64 0 0 1-4.07-4c-1.15-1.7-1.74-3.7-2.33-5.73Z" fill="#1E2882"/><path d="M346 24.5c.5 9 .3 11.32.04 21.23-.06 1.82-.27 4.15 1.37 5.03.8.42 2.43.16 3.33.16 4.49 0 8.98 0 13.47-.05h8.82c1 0 2.06 0 3.01-.26a3.8 3.8 0 0 0 2.38-1.71c.32-.63.47-1.3.47-2.03-.15-8.5-1.42-16.22-.89-24.89-2.8.42-5.65.1-8.5 0-.74-.05-.97.04-1.5-.48-.42-.42-.9-.93-1-1.5-.21-1.25.4-4.7.5-6-3.33-.16-7.6-.18-12.5 0-2.85.1-8.5-.5-9 1" fill="#FFD15A"/><path fill-rule="evenodd" clip-rule="evenodd" d="M352.2 21.7c-.26 0-.53.02-.8.04-1.65.1-1.6-2.4 0-2.5 1.4-.1 2.75-.15 4.15-.1 1.6.05 1.6 2.55 0 2.5a30.9 30.9 0 0 0-.84-.01 50.5 50.5 0 0 0 0 2.86v.15c.04 1.6-2.46 1.6-2.5 0-.04-1-.03-1.97 0-2.95Z" fill="#1E2882"/><path d="M368.45 7c.1-2.26 2-1.8 3.7-1.76 1.8 0 3.8-.2 5.55.05 1.3.2 2.2.5 2.5 1.75.15.6 0 1.3.05 1.9.05 1.45.1 2.95.2 4.4.1 1.6 2.6 1.6 2.5 0-.1-2.4.2-5.15-.35-7.5-.55-2.4-2.65-2.95-4.85-3.05-2.75-.15-6-.55-8.75-.05-2.3.4-2.95 2-3 4.2-.1 1.65 2.4 1.65 2.45.05ZM365.75 13.2c-.05 2.74-1.05 8.7 2 10.14 1.5.75 3.6.4 5.2.45h8.2c1.6 0 1.6-2.5 0-2.5-3.5-.05-7.05.05-10.55 0-1.1 0-1.75.15-2.25-1.15-.2-.65-.1-1.55-.15-2.25-.1-1.55-.05-3.1 0-4.7s-2.45-1.6-2.45 0Z" fill="#1E2882"/><path d="M371.05 8.14c-.35.2-.25 1-.3 1.3-.1 1.8.05 3.5.05 5.3 0 .65-.05 1.15.05 1.9.05.2 0 .6.1.8.15.35.55.4.85.4 1.9.05 3.8-.4 5.7-.2.1 0 .15-.2.25-.25.05-.05.4-.15.45-.2.2-.35.2-.15.15-.55-.05-.25 0-.8 0-1.1-.2-1.8-.15-6.55-.4-7.2-.1-.3-.45-.4-.95-.4-.75.05-2.05-.1-2.85-.15-.75 0-2.7.1-3.1.35Z" fill="#F68559"/><path d="M370.2 7.24c-1.2 1.55-.65 4.15-.65 5.95 0 1.5-.55 4.4.9 5.45.8.6 1.85.45 2.8.4 1.35-.1 3 .1 4.3-.15.35-.05.55-.2.9-.35.35-.2-.3.2.05-.05.5-.35.9-.55 1.05-1.2.35-1.25-.05-3-.1-4.25-.05-1.5.15-3.25-.2-4.7-.4-1.7-1.85-1.55-3.3-1.65-1.65-.1-3.6-.35-5.2.25-1.5.6-.85 3 .65 2.4.85-.3 1.85-.3 2.75-.3.65 0 1.8.35 2.35.15.6.15.7 0 .3-.5 0 .1 0 .2.05.3-.3.65.1 2.3.1 3.05l.15 3.35c0 .35-.1.95 0 1.25 0 .6.15.45.35-.45-.15.05-.3.1-.45.2a.6.6 0 0 0-.25.25c.2-.45-.05-.55-.65-.35-.75-.15-1.75.1-2.5.2-.35.05-.7.05-1.05.05-.5.2-.65 0-.5-.6-.2-.65 0-1.7 0-2.35 0-.9-.05-1.75-.05-2.65 0-.25-.15-1.8-.05-1.95.95-1.2-.8-3-1.75-1.75Z" fill="#F68559"/><path d="M372.9 11.84c-.3.6-.45 1.3-.3 1.95.2.9 1.15 1.4 2 1.4.85 0 1.65-.4 2.05-1.1.5-.9.25-1.85-.4-2.6-.65-.7-1.65-.95-2.5-.45-.7.35-1.2 1.2-1.2 2 .05 1.05 1 1.65 1.95 1.55 1-.1 2-1.05 1.65-2.15-.2-.55-.65-.9-1.2-.9h-.05c-.4-.05-.9.25-1.1.6v.05c-.3.6-.15 1.4.45 1.7.6.3 1.4.15 1.7-.45v-.05c-.35.2-.7.4-1.1.6h.05l-1.2-.9c-.05-.6.1-.9.5-.95.15-.05.2-.05.1-.05s-.1 0 .1.05l.6.95c0 .05-.05.05-.05.1.05-.1.05-.1 0-.05l.05-.05-.25.15c-.15.05-.4-.15-.45-.1-.05-.05-.05-.05 0 0s.1.05.1.1l-.05-.05c.1.15.1.15.05-.05 0-.2 0-.15.05-.35-.1.1-.05.1 0 0 .1-.1.1-.05.25-.1h-.1.1c-.1-.05-.15-.05-.05 0 .1.05.2.1.2.25.15.1.2.25.2.45v-.1c0-.05.05-.3 0-.1-.05.2 0-.05.05-.1.15-.35.05-.1 0 0 .25-.6.2-1.35-.45-1.7-.55-.25-1.45-.15-1.75.45Z" fill="#1E2882"/><path d="M372.25 18.54c1.3-1.95 3.8-1.75 5.25 0 .3-.7.6-1.4.9-2.15-2.35.25-4.7.25-7.1.25-1.6 0-1.6 2.5 0 2.5 2.35 0 4.75 0 7.1-.25 1.1-.1 1.6-1.25.9-2.15a5.64 5.64 0 0 0-9.15.5c-.95 1.4 1.2 2.65 2.1 1.3ZM362.9 25.5h-4.65c-1.65 0-1.65-2.5 0-2.5h4.65c1.6 0 1.6 2.5 0 2.5ZM374 31.4h-21.25c-1.65 0-1.65-2.5 0-2.5H374c1.6 0 1.6 2.5 0 2.5ZM352.55 37.34h21.6c1.6 0 1.6-2.5 0-2.5h-21.6c-1.6 0-1.6 2.5 0 2.5ZM374.15 43.24h-21.6c-1.6 0-1.6-2.5 0-2.5h21.6c1.6 0 1.6 2.5 0 2.5Z" fill="#1E2882"/><path d="M425.3 7.23c4-.72 9.05.2 11.48 3.44a15.12 15.12 0 0 1 2.72 10.36c-.4 3.73-2.87 6.92-5.99 9-2.17 1.46-5.04 1.7-7.57 1.02-2.52-.68-6.03-1.74-7.77-3.68-2.67-3.1-2.92-6.3-3.16-10.36-.1-1.84.79-5.27 2.52-5.9.05 0 3.76-3.15 7.77-3.88Z" fill="#FFD15A"/><path d="M401.14 45.45a560.9 560.9 0 0 1-.05-26.26c0-.71.52-1.08 1.06-1.12l.08-.06c5.5-5.05 9.6-7.77 14.42-11.16.69-.68 2-.18 1.96.81-.15 5.79.2 11.57.56 17.36.38 6.37.77 12.75.49 19.12-.05.68-.5 1.04-1.14 1.13a218.4 218.4 0 0 1-16.25 1.31c-.63.05-1.13-.54-1.13-1.13Z" fill="#B8DDF0"/><path d="M400.68 17.03c5.45-4.6 11.2-8.86 17.28-12.66.6-.67 2.02-.43 2.02.71.15 6.28.22 12.53.29 18.8l.12 9.37c0 1.44-2.28 1.44-2.28 0l-.12-9.38c-.06-5.56-.12-11.12-.24-16.7A153.05 153.05 0 0 0 402.4 18.5l-.13 27.27c5.62-.85 11.27-1.31 16.97-1.31 1.45 0 1.45 2.26 0 2.26-5.96 0-11.92.45-17.84 1.45-.76.12-1.28-.45-1.38-1.04a1.18 1.18 0 0 1-.03-.28l.14-28.88c0-.46.23-.78.54-.94Z" fill="#1E2882"/><path d="M420.34 13.8c3.73-.58 7.51-.67 11.29-.53l-1.14-1.13c.23 8.22.45 16.45.77 24.72.05 1.45 2.32 1.45 2.28 0-.32-8.22-.55-16.45-.78-24.72 0-.64-.5-1.09-1.13-1.13-4-.14-7.97 0-11.88.63-1.46.23-.87 2.4.6 2.17ZM421.52 42.7c2.19-.28 4.42-.41 6.6-.37 1.46 0 1.46-2.26 0-2.26-2.23 0-4.41.14-6.6.37-1.45.18-1.45 2.44 0 2.26Z" fill="#1E2882"/><path d="M420.02 19.32c2.55-.22 5.1-.45 7.65-.45 1.45 0 1.45-2.26 0-2.26-1.91 0-3.82.15-5.74.3-.63.06-1.27.1-1.9.15-1.46.1-1.46 2.35 0 2.26ZM420.02 27.1c2.23-.24 4.46-.23 6.7-.23h.95c1.45 0 1.45-2.26 0-2.26-2.55 0-5.1 0-7.65.23-1.45.14-1.45 2.4 0 2.26ZM427.35 33.84c-2.6 0-5.23 0-7.78.5-1.41.26-2.05-1.9-.64-2.18a43.7 43.7 0 0 1 8.42-.58c1.45 0 1.45 2.26 0 2.26ZM403.41 24.52c1.05 4.89 2 9.81 3.1 14.7.23 1.03 2 1.08 2.18 0 .82-4.53 1.37-9.14 2-13.7h-2.18c.86 3.8 1.77 7.6 3.05 11.3.4 1.22 2.14 1 2.23-.32.5-5.96 1.04-11.93 1.54-17.9.14-1.45-2.13-1.45-2.27 0-.5 5.97-1.05 11.94-1.55 17.9.73-.09 1.5-.18 2.23-.31a106 106 0 0 1-3.05-11.3c-.22-1.04-2.04-1.14-2.18 0-.68 4.56-1.18 9.13-2 13.7h2.18c-1.1-4.89-2.05-9.82-3.1-14.7-.27-1.4-2.45-.81-2.18.63Z" fill="#1E2882"/><path fill-rule="evenodd" clip-rule="evenodd" d="M490.62 4.1c-.4.36-.75.76-1.05 1.16-.4.55-1.3.4-1.75 0-.2-.25-.35-.6-.35-.9 0-.35.15-.6.35-.85.35-.4.7-.8 1.05-1.15.5-.5 1.25-.45 1.75 0s.45 1.3 0 1.75Zm-34.96 40.58 1.2 2.13c-.46.3-.7.98-.24 1.5 3.6 3.8 9.3 2.7 13.9 1.65 4.8-1.15 10.1-2.5 14.4-4.85 1.4-.75 5.6-3 2.15-4.5-1.05-.48-2.55-.23-4.02.18a285.75 285.75 0 0 1 8.87-8.52c2-1.83 3.93-3.58 4.1-6.51.15-2.25-1.2-3.1-3.05-1.85-.74.51-1.43.87-2.15 1.15l.23-.45c.16-.32.3-.6.42-.8.36-.62.77-1.25 1.18-1.9 1.2-1.85 2.47-3.81 2.87-5.85.35-1.9.15-5-2.45-4.45-2.49.53-4.96 2.36-7.17 4.1l.52-1.77a40.5 40.5 0 0 1 1.25-3.93c.85-2.2.55-5.15-2.5-4.1-3.66 1.26-7.06 3.82-10.2 6.18a240.53 240.53 0 0 1-1.5 1.14c-.54.47-2.18 1.86-2.45 1.73-.4-.16.22-1.3.58-1.98l.22-.42c.75-1.65 1.2-3.1.7-4.85-.15-.45-.65-.85-1.15-.65-2.3.86-4.33 3.4-6.07 5.56-.48.6-.94 1.18-1.38 1.69a57.36 57.36 0 0 0-6.6 8.95c-3.65 6.3-6 14.2-2.85 21.15.24.55.79.55 1.19.27Zm41.96-33.22 1-1c.45-.45.5-1.3 0-1.75-.5-.45-1.25-.5-1.75 0l-1 1c-.45.45-.5 1.3 0 1.75.5.45 1.25.45 1.75 0Z" fill="#F68559"/><path d="M456.57 45.16c.65-1.4 1.65-2.6 2.7-3.8 7.05-8.2 15.45-15.2 22-23.8.75 1.35 1.55 2.65 2.3 4 .3.5.6 1.1.55 1.65-.05.5-.3.95-.55 1.35-2.05 3.25-4.1 6.55-6.1 9.8 1.9-3.3 3.85-6.65 5.3-10.2.4-.95.7-2.25-.05-2.95-.5-.5-1.35-.5-2-.2-.65.3-1.15.85-1.65 1.35-6.1 6.75-12.15 13.4-18.2 20.05-1.3 1.4-2.65 2.9-4.5 3.5 4.7-1.8 7.65-6.35 11.5-9.55-2.5 2.85-5.05 5.65-7.55 8.5" fill="#fff"/><path d="M457.62 45.76c2.75-5.25 8-9.55 12.15-13.7 4.3-4.35 8.6-8.75 12.35-13.6-.65-.1-1.3-.15-1.95-.25.65 1.15 1.6 2.35 2.05 3.6.7 1.9-.35 3.05-1.3 4.6-1.55 2.45-3.05 4.9-4.6 7.35l2.15 1.25c1.25-2.15 2.5-4.35 3.65-6.55.85-1.65 2.05-3.6 2.2-5.5.35-3.95-3.85-3.8-5.95-1.65-3.8 3.85-7.3 8.05-10.95 12.05-1.85 2-3.7 4.05-5.5 6.05-1.7 1.9-3.45 4.35-5.9 5.3.2.8.45 1.6.65 2.4 5-2.1 8.05-6.45 12.05-9.9l-1.75-1.75c-2.5 2.85-5.05 5.65-7.55 8.5-1.05 1.2.7 2.95 1.75 1.75 2.5-2.85 5.05-5.65 7.55-8.5 1.1-1.2-.55-2.8-1.75-1.75-3.6 3.1-6.45 7.35-10.95 9.25-1.45.6-.85 3 .65 2.4 3-1.15 4.9-3.65 7-5.95 2.95-3.2 5.85-6.4 8.8-9.6l4.2-4.65c.65-.7 1.3-1.45 1.95-2.15.75-.85 1.3-2.1 2.45-1.7 1.3.4-.05 2.05-.5 2.95-.4.8-.8 1.6-1.2 2.35-.95 1.8-2 3.6-3.05 5.4-.8 1.4 1.3 2.65 2.15 1.25l3.3-5.3c1-1.65 2.4-3.35 3.15-5.15 1.15-2.65-1.4-5.45-2.65-7.65-.35-.65-1.45-.9-1.95-.25-3.95 5.1-8.45 9.65-13 14.25-4.05 4.15-9.1 8.4-11.85 13.6-.75 1.45 1.4 2.7 2.15 1.25Z" fill="#fff"/><path d="M467.77 31.36c3.6-4.25 7.3-8.3 11.2-12.3 1.15-1.15-.65-2.9-1.75-1.75-3.9 4-7.65 8.05-11.25 12.3-1 1.25.75 3 1.8 1.75ZM481.17 16.8c1.15 1.2 2.3 2.56 3.1 4 1.25 2.4-.4 4.26-1.55 6.26a37.18 37.18 0 0 1-6.25 7.95c-1.2 1.1.6 2.85 1.75 1.75 3.4-3.15 5.9-7 8.15-11 2.3-4.1-.65-7.75-3.45-10.7-1.1-1.2-2.9.6-1.75 1.75Z" fill="#1E2882"/><path d="M481.27 20.8c-5.05 6.2-10.5 12.06-15.65 18.16-1.05 1.2.75 3 1.75 1.75 5.2-6.1 10.65-11.95 15.65-18.15 1-1.25-.75-3-1.75-1.75ZM455.82 49.46c.3-2 1.1-4.4 2-6.2.65-1.3 1.9-2.45 2.85-3.55l3.9-4.65c1-1.25-.75-3-1.75-1.75-2.25 2.75-5.5 5.6-7.15 8.75-1 1.95-1.95 4.55-2.25 6.75-.2 1.55 2.2 2.25 2.4.65Z" fill="#1E2882"/><path d="M455.27 50.4c2.35-1.24 4.65-2.7 6.95-4.1 1.35-.84.1-3-1.25-2.14-2.3 1.4-4.55 2.85-6.95 4.1-1.45.75-.2 2.9 1.25 2.15Z" fill="#1E2882"/><path d="M457.57 42.96c.9.95 1.95 1.85 2.85 2.8 1.1 1.15 2.9-.6 1.75-1.75-.9-.95-1.95-1.85-2.85-2.8-1.1-1.2-2.9.55-1.75 1.75ZM468.57 28.96c1.05 1 2.1 2 3.2 3 1.15 1.1 2.95-.65 1.75-1.75-1.05-1-2.1-2-3.2-3-1.15-1.1-2.9.65-1.75 1.75Z" fill="#1E2882"/><path d="M306.1 7.71a13.61 13.61 0 0 0-11.32 6.6c-2 3.2-1.88 6.6-2.83 7.55-1.2 1.19-4.91 2.61-7.54 3.8-3.88 1.7-2.21 1.94-.94 2.83 2.38 1.66 5.63 3.94 6.6 4.71.54.43.22 1.41.65 1.82 2.73-1.52 5.11-2.73 7.83-1.82 3.57 2.68-3.77 4.72-6.6 5.66-.61-1.1-1.23 8.8 11.44 8.8 2.82 0 5.85-2 9.31-5.06.94 0-.94-1.88-.94-1.88-2.22-1.45-.95-2.56-.95-4.72 0-2.83-12-6.14-8.48-7.54 2.33-.94 5.75-1.64 8.48-4.72 1.49-1.67 1.92-6.73 3.77-9.43 1.62-2.35 3.12-1.64 2.83-1.88-3.3-2.77-5.25-4.72-11.31-4.72Z" fill="#B6DBEE"/><path d="M298.54 18.6c-.09.12.15-.17.2-.22l.39-.37c.13-.12-.11.09.05 0l.19-.14.42-.24.22-.11h.1c.19 0 .3-.11.46-.15l.47-.1h1.05c.16.03.32.07.47.12l.29.1c.58.24 1.09.62 1.48 1.1a1.21 1.21 0 0 0 1.7 0 1.23 1.23 0 0 0 0-1.69 6.2 6.2 0 0 0-4.85-2.09 6.35 6.35 0 0 0-4.79 2.6 1.22 1.22 0 0 0-.06.93 1.2 1.2 0 0 0 .62.69 1.24 1.24 0 0 0 1.64-.43h-.05Z" fill="#1E2882"/><path d="M298.81 22.66c.12.51.34 1 .63 1.43.28.53.7.98 1.21 1.29a3 3 0 0 0 2.71-.05 3.35 3.35 0 0 0 1.53-1.82 3.42 3.42 0 0 0-1.44-4.15 3.22 3.22 0 0 0-3-.06 3.27 3.27 0 0 0-1.72 3 1.21 1.21 0 0 0 1.2 1.2 1.23 1.23 0 0 0 1.2-1.2 3.09 3.09 0 0 1 0-.43l-.05.32.12-.48c.05-.18 0 .11-.07.14a.25.25 0 0 0 .05-.1l.1-.17.06-.08c.07-.11-.22.25-.11.13l.13-.13c.21-.18.05-.05 0 0l.25-.14s-.33.13-.21.09h.18l.33-.07h-.32c.15-.02.3-.02.44 0l-.32-.05.31.07h.11c.19.06-.21-.11-.08 0l.24.14c.17.11-.17-.15-.07-.05l.12.11.09.09c.15.16-.12-.18-.05-.07l.15.26c.11.2-.07-.2 0-.07s0 .1.05.15c.05.05.05.22.07.33v-.32c.02.22.02.45 0 .67v-.32c0 .11 0 .21-.07.32-.07.11 0 .08 0 .12-.06.19.1-.21 0-.08s-.08.16-.13.24l-.09.13c-.07.11.21-.23.06-.07l-.2.2c-.06.07.25-.17.07-.05l-.1.06-.15.08c-.11.07.29-.09.07 0l-.33.08h.32-.47.32l-.26-.06c-.2 0 .18.11.07 0l-.1-.06c.19.15.24.19.15.11l-.06-.06-.2-.21c.1.12.27.29 0 0l-.09-.14a4.6 4.6 0 0 1-.34-.62c-.12-.24.06.16 0 .08l-.06-.15a1.23 1.23 0 0 1-.07-.26 1.2 1.2 0 0 0-1.48-.84 1.24 1.24 0 0 0-.7 1.52ZM316.85 11a12.76 12.76 0 0 0-4.3 5.21c-.92 1.91-.53 4.24-1.64 6.07-1 1.63-3 2.55-4.63 3.4a22 22 0 0 0-5.27 3.37 1.19 1.19 0 0 0-.26 1.31c.06.15.15.28.26.39a50.14 50.14 0 0 0 6.35 3.91c.88.5 1.74 1 2.6 1.56v-.07.14c0 .35 0 .87.05 1.27a12.58 12.58 0 0 0 2.94 8 9.79 9.79 0 0 0 7.16 3.45c4 .15 7.9-1.22 10.93-3.83 1.2-1-.5-2.66-1.69-1.7a13.4 13.4 0 0 1-9.09 3.14 7.66 7.66 0 0 1-6.38-3.8c-1.32-2.09-1.3-4.15-1.52-6.5-.18-1.83-1.62-2.44-3.07-3.27a54.32 54.32 0 0 1-6.58-3.92v1.7c2.85-2.74 7.23-3.39 9.76-6.54 1.48-1.85 1.39-4 2-6.21.62-2 1.9-3.75 3.63-4.93 1.26-.88.06-3-1.21-2.07l-.04-.08ZM333.8 10.01a11.3 11.3 0 0 0-5.34-2.8c-1.76-.3-3.57-.27-5.32.08a1.2 1.2 0 0 0-.84 1.48 1.24 1.24 0 0 0 1.48.84c1.34-.25 2.7-.28 4.05-.08a8.78 8.78 0 0 1 4.27 2.18 1.2 1.2 0 0 0 1.96-.39 1.2 1.2 0 0 0-.26-1.31Z" fill="#1E2882"/><path d="M319.58 21.92a9.1 9.1 0 0 0-.4.67c-.17.32-.3.65-.39 1-.18.75-.07 1.54.3 2.22a2.46 2.46 0 0 0 2.1 1.25 2.88 2.88 0 0 0 2.1-1c.24-.25.45-.52.62-.82a5.8 5.8 0 0 0 .4-1.02 2.54 2.54 0 0 0-.6-2.46 2.69 2.69 0 0 0-1.76-.82 3 3 0 0 0-1.07 0 2.8 2.8 0 0 0-.84.37 3.14 3.14 0 0 0-1.29 1.88c-.07.33-.1.66-.07 1 .02.35.1.69.26 1 .21.33.52.58.89.72.35.2.76.25 1.15.15a1.5 1.5 0 0 0 1-1.84c-.1-.38-.35-.7-.69-.9l-.35-.18.69.89a1.64 1.64 0 0 1-.05-.23l.05.4a2 2 0 0 1 0-.49l-.06.4c.03-.16.07-.32.13-.47l-.16.36c.09-.12.2-.24.31-.34l-.23.31c.07-.1.15-.18.24-.26l-.3.24.3-.18-.36.15c.1-.04.21-.07.32-.09l-.4.06c.12-.02.25-.02.37 0l-.4-.05c.12.01.25.04.36.09l-.36-.15c.11.05.21.1.31.18l-.3-.24c.08.06.14.13.2.21l-.23-.27c.06.08.11.16.15.25l-.16-.36c.04.1.06.2.08.3l-.05-.4v.34-.4a2 2 0 0 1-.13.48l.15-.36c-.09.21-.2.4-.34.59l.23-.3c-.11.15-.25.29-.39.41l.3-.24c-.1.09-.23.16-.35.22l.35-.15c-.1.04-.19.07-.29.09l.4-.06h-.26l.4.05a.72.72 0 0 1-.25-.07l.36.15-.2-.11.3.23a.8.8 0 0 1-.18-.19l.23.31-.15-.27.15.35a1.25 1.25 0 0 1-.1-.38v.4a1.87 1.87 0 0 1 0-.41v.4a2 2 0 0 1 .16-.54l-.16.36c.15-.32.32-.62.51-.91a1.51 1.51 0 0 0-.53-2.05 1.54 1.54 0 0 0-2.06.54l.04-.01Z" fill="#B6DBEE"/><path d="M319.43 20.66s.46-.38.23-.2c.14-.12.3-.22.45-.32l.48-.27.15-.07a5.55 5.55 0 0 1 1.33-.39h.98c.06 0 .62.07.31 0 .34.06.67.15 1 .26.06 0 .5.2.24.08.17.08.34.16.51.26l.48.3.23.16c-.12-.1-.12-.1 0 0a1.5 1.5 0 0 0 2.12-2.12 7.92 7.92 0 0 0-10.69.17 1.51 1.51 0 0 0 0 2.12 1.53 1.53 0 0 0 2.12 0l.06.02ZM316.13 38.71a10.85 10.85 0 0 0 7.75-3.22 1.5 1.5 0 0 0 .37-1.66 1.48 1.48 0 0 0-1.42-.94 1.5 1.5 0 0 0-1.07.48c-.21.2-.41.4-.63.59l-.17.13c.17-.12-.27.23 0 0l-.35.25c-.24.16-.48.3-.74.44l-.38.2-.19.09-.1.05.11-.05c-.14.04-.28.09-.41.16l-.4.13c-.28.09-.56.16-.84.22l-.42.07c.21 0-.29 0 0 0H316.11a1.5 1.5 0 0 0 0 3l.02.06Z" fill="#B6DBEE"/></svg>